<svg width="1431" height="880" viewBox="0 0 1431 880" fill="none" xmlns="http://www.w3.org/2000/svg">
<path d="M695.864 291.784C713.59 275.783 732.012 270.628 749.674 273.08C767.357 275.536 784.344 285.627 799.148 300.244C828.767 329.488 849.5 376.699 849.5 416.401C849.5 456.106 828.51 506.039 799.971 539.064C785.703 555.575 769.59 567.809 753.329 572.454C737.103 577.089 720.691 574.181 705.714 560.329C690.545 546.3 670.157 535.349 648.562 525.548C637.762 520.646 626.648 516.027 615.725 511.453C604.798 506.878 594.063 502.348 584.006 497.622C563.878 488.163 546.535 477.944 535.848 465.063C525.361 452.424 521.261 437.199 527.319 417.496L527.615 416.554C534.126 396.305 543.419 382.431 554.791 371.995C566.171 361.552 579.658 354.528 594.602 348.015C624.005 335.198 659.027 324.376 694.19 293.28L695.864 291.784Z" stroke="#1F1B26"/>
<path d="M697.645 263.884C719.088 244.485 741.381 238.228 762.761 241.203C784.161 244.181 804.712 256.42 822.614 274.135C858.429 309.574 883.5 366.783 883.5 414.901C883.5 463.022 858.119 523.527 823.613 563.543C806.362 583.549 786.873 598.384 767.193 604.018C747.856 609.553 728.297 606.219 710.398 590.086L709.548 589.308C691.228 572.327 666.599 559.07 640.502 547.199C627.45 541.263 614.019 535.668 600.817 530.128C587.612 524.587 574.636 519.1 562.479 513.374C538.15 501.916 517.171 489.532 504.238 473.911C491.541 458.575 486.579 440.096 493.912 416.196L494.271 415.055C502.145 390.513 513.385 373.692 527.144 361.038C540.91 348.377 557.223 339.865 575.287 331.974C610.833 316.446 653.139 303.345 695.621 265.695L697.645 263.884Z" stroke="#1F1B26"/>
<path d="M699.737 231.625C725.554 208.297 752.405 200.767 778.158 204.347C803.933 207.929 828.675 222.649 850.223 243.945C893.327 286.547 923.5 355.318 923.5 413.168C923.5 471.02 892.954 543.747 851.43 591.847C830.669 615.895 807.207 633.736 783.504 640.513C760.206 647.174 736.64 643.16 715.081 623.75L714.057 622.814C692.029 602.422 662.412 586.496 631.019 572.233C615.319 565.101 599.161 558.378 583.278 551.721C567.392 545.062 551.779 538.468 537.151 531.587C507.882 517.818 482.626 502.928 467.052 484.14C451.755 465.685 445.778 443.445 454.609 414.694L455.041 413.32C464.519 383.816 478.049 363.588 494.616 348.369C511.191 333.143 530.829 322.909 552.563 313.426C595.676 294.615 647.02 278.779 698.521 232.719L699.737 231.625Z" stroke="#1F1B26"/>
<path d="M701.568 202.854C731.213 176.02 762.05 167.355 791.631 171.474C821.232 175.595 849.641 192.53 874.378 217.021C923.861 266.011 958.5 345.092 958.5 411.621C958.5 478.153 923.434 561.782 875.768 617.091C851.936 644.743 824.997 665.267 797.775 673.063C771.014 680.728 743.942 676.107 719.18 653.775L718.002 652.698C692.731 629.262 658.749 610.957 622.721 594.561C604.703 586.361 586.162 578.633 567.933 570.979C549.7 563.324 531.78 555.743 514.99 547.831C481.397 532.001 452.398 514.877 434.513 493.263C416.94 472.026 410.077 446.432 420.22 413.354L420.715 411.774C431.596 377.843 447.132 354.575 466.156 337.069C485.188 319.557 507.735 307.787 532.682 296.884C582.168 275.255 641.078 257.053 700.173 204.11L701.568 202.854Z" stroke="#1F1B26"/>
<path d="M703.767 168.851C738.003 137.876 773.625 127.868 807.798 132.624C841.992 137.383 874.802 156.933 903.366 185.199C960.504 241.74 1000.5 333.007 1000.5 409.794C1000.5 486.583 960.011 583.094 904.975 646.924C877.458 678.837 846.348 702.529 814.902 711.531C783.983 720.383 752.703 715.045 724.097 689.26L722.736 688.017C693.572 660.984 654.353 639.866 612.763 620.947C591.965 611.487 570.562 602.571 549.518 593.739C528.47 584.907 507.781 576.159 488.396 567.029C449.615 548.763 416.125 528.998 395.467 504.045C375.165 479.521 367.235 449.962 378.951 411.771L379.524 409.946C392.09 370.783 410.031 343.925 432.003 323.716C453.983 303.5 480.02 289.916 508.821 277.334C565.957 252.374 633.948 231.379 702.155 170.302L703.767 168.851Z" stroke="#1F1B26"/>
<path d="M706.278 129.617C745.764 93.8634 786.852 82.307 826.273 87.7979C865.716 93.2918 903.557 115.861 936.495 148.483C1002.38 213.736 1048.5 319.063 1048.5 407.686C1048.5 496.31 1001.81 607.686 938.353 681.347C906.625 718.175 870.747 745.525 834.475 755.918C798.804 766.138 762.715 759.973 729.717 730.203L728.147 728.768C694.534 697.585 649.329 673.223 601.383 651.395C577.407 640.479 552.733 630.191 528.472 620.001C504.207 609.809 480.354 599.715 458.005 589.18C413.293 568.103 374.67 545.292 350.842 516.485C327.42 488.169 318.273 454.036 331.788 409.945L332.448 407.838C346.938 362.638 367.629 331.635 392.971 308.308C418.32 284.973 448.347 269.295 481.554 254.776C547.431 225.973 625.799 201.753 704.421 131.29L706.278 129.617Z" stroke="#1F1B26"/>
<path d="M709.418 80.793C755.464 39.0919 803.387 25.6089 849.369 32.0146C895.373 38.4234 939.501 64.7493 977.906 102.792C1054.73 178.886 1108.5 301.711 1108.5 405.062C1108.5 508.415 1054.06 638.29 980.076 724.185C943.084 767.13 901.247 799.031 858.941 811.154C817.001 823.173 774.563 815.769 735.826 780.323L734.912 779.48C695.738 743.133 643.05 714.733 587.158 689.283C559.209 676.557 530.447 664.564 502.164 652.683C473.878 640.8 446.07 629.029 420.015 616.745C367.891 592.17 322.851 565.568 295.062 531.967C267.306 498.406 256.737 457.839 273.604 405.214C290.5 352.502 314.627 316.343 344.181 289.134C373.742 261.918 408.756 243.633 447.469 226.704C524.877 192.854 617.052 164.442 709.418 80.793Z" stroke="#1F1B26"/>
<path d="M712.4 34.584C764.679 -12.7456 819.094 -28.0528 871.31 -20.7812C923.546 -13.5067 973.647 16.3749 1017.25 59.5479C1104.45 145.903 1165.5 285.287 1165.5 402.577C1165.5 519.87 1103.7 667.253 1019.71 764.728C977.721 813.462 930.222 849.67 882.185 863.432C834.557 877.075 786.362 868.668 742.375 828.433L741.337 827.477C696.88 786.241 637.084 754.019 573.645 725.143C541.922 710.703 509.276 697.094 477.172 683.612C445.065 670.129 413.5 656.773 383.924 642.834C324.758 614.949 273.623 584.759 242.069 546.619C210.796 508.818 198.738 463.184 217.259 404.128L217.702 402.73C236.883 342.909 264.275 301.869 297.829 270.986C331.391 240.097 371.144 219.347 415.088 200.137C502.272 162.024 605.935 129.995 709.943 36.7969L712.4 34.584Z" stroke="#1F1B26"/>
<path d="M716.168 -23.8311C776.32 -78.2761 838.936 -95.8886 899.024 -87.5225C959.134 -79.1533 1016.78 -44.7767 1066.94 4.88184C1167.27 104.208 1237.5 264.527 1237.5 399.438C1237.5 534.353 1166.41 703.868 1069.78 815.979C1021.47 872.033 966.822 913.687 911.544 929.519C856.733 945.217 801.266 935.542 750.648 889.251L749.454 888.15C698.324 840.736 629.548 803.683 556.574 770.474C520.084 753.868 482.532 738.218 445.603 722.713C408.669 707.207 372.358 691.846 338.335 675.814C270.275 643.744 211.44 609.018 175.133 565.142C139.142 521.649 125.267 469.141 146.579 401.199L147.089 399.591C169.157 330.781 200.673 283.572 239.281 248.046C277.898 212.513 323.634 188.645 374.186 166.551C474.482 122.716 593.712 85.8866 713.343 -21.2861L716.168 -23.8311Z" stroke="#1F1B26"/>
<path d="M719.727 -78.7578C787.314 -139.893 857.675 -159.675 925.199 -150.279C992.744 -140.881 1057.52 -102.278 1113.87 -46.5215C1226.59 65.0015 1305.5 245.005 1305.5 396.486C1305.5 547.97 1225.62 738.297 1117.07 864.172C1062.79 927.107 1001.39 973.88 939.272 991.659C877.677 1009.29 815.343 998.422 758.462 946.438L757.119 945.202C699.686 891.977 622.431 850.383 540.452 813.1C499.46 794.457 457.275 776.887 415.787 759.479C374.296 742.071 333.503 724.826 295.279 706.826C218.819 670.821 152.713 631.828 111.915 582.558C71.4696 533.713 55.8761 474.742 79.8252 398.444L80.3984 396.639C105.193 319.378 140.603 266.367 183.985 226.475C227.375 186.575 278.763 159.776 335.556 134.971C448.235 85.7555 582.167 44.4113 716.552 -75.9014L719.727 -78.7578Z" stroke="#1F1B26"/>
<path d="M723.337 -134.557C798.469 -202.489 876.69 -224.473 951.759 -214.032C1026.85 -203.588 1098.85 -160.692 1161.5 -98.7402C1286.79 25.1731 1374.5 225.173 1374.5 393.487C1374.5 561.804 1285.71 773.272 1165.05 913.129C1104.72 983.056 1036.46 1035.03 967.408 1054.79C898.928 1074.38 829.625 1062.3 766.39 1004.53L764.897 1003.16C701.069 944.032 615.209 897.823 524.094 856.401C478.533 835.689 431.646 816.169 385.533 796.829C339.417 777.488 294.076 758.327 251.591 738.329C166.606 698.326 93.1205 655.002 47.7666 600.251C2.80072 545.969 -14.5335 480.432 12.0908 395.646L12.7275 393.64C40.2881 307.794 79.6504 248.889 127.876 204.561C176.109 160.225 233.233 130.448 296.357 102.889C421.603 48.2076 570.453 2.27837 719.809 -131.383L723.337 -134.557Z" stroke="#1F1B26"/>
<path d="M727.053 -192.1C809.949 -267.041 896.256 -291.296 979.089 -279.777C1061.94 -268.255 1141.38 -220.932 1210.5 -152.591C1348.73 -15.9 1445.5 204.722 1445.5 390.395C1445.5 576.069 1347.55 809.34 1214.42 963.616C1147.86 1040.75 1072.56 1098.09 996.36 1119.89C920.796 1141.5 844.323 1128.18 774.548 1064.44L772.901 1062.93C702.493 997.713 607.778 946.745 507.261 901.056C456.999 878.21 405.274 856.679 354.402 835.347C303.528 814.013 253.506 792.877 206.635 770.817C112.879 726.692 31.8018 678.899 -18.2402 618.497C-67.8578 558.608 -86.9846 486.3 -57.6074 392.761L-56.9043 390.548C-26.497 295.848 16.9319 230.866 70.1416 181.963C123.359 133.053 186.383 100.204 256.023 69.8037C394.199 9.48581 558.399 -41.1721 723.16 -188.6L727.053 -192.1Z" stroke="#1F1B26"/>
</svg>
