<svg width="578" height="390" viewBox="0 0 578 390" fill="none" xmlns="http://www.w3.org/2000/svg">
<g filter="url(#filter0_d_0_5771)">
<rect x="28" y="16" width="522" height="334" rx="16" fill="white" fill-opacity="0.05"/>
<rect x="28.5" y="16.5" width="521" height="333" rx="15.5" stroke="white" stroke-opacity="0.1"/>
<path d="M74 83C81.732 83 88 76.732 88 69C88 61.268 81.732 55 74 55C66.268 55 60 61.268 60 69C60 76.732 66.268 83 74 83Z" fill="#F49B33"/>
<path d="M79.157 66.1408C79.0201 64.3851 77.514 63.7703 75.608 63.569L75.6509 61.1368L74.1717 61.1126L74.1288 63.4804C73.7395 63.4724 73.3422 63.475 72.9449 63.475L72.9878 61.0911L71.5086 61.0643L71.4657 63.4965C71.1462 63.4965 70.8295 63.4992 70.5234 63.4911V63.4831L68.4805 63.4482L68.4536 65.0294C68.4536 65.0294 69.5489 65.0267 69.5301 65.0482C70.1288 65.0589 70.3194 65.4106 70.3704 65.7113L70.3221 68.4818C70.3623 68.4818 70.416 68.4844 70.4778 68.4952L70.3221 68.4925L70.255 72.3744C70.2254 72.5623 70.11 72.8603 69.6885 72.8549C69.7073 72.871 68.612 72.8361 68.612 72.8361L68.2872 74.5972L70.2147 74.6321C70.5717 74.6401 70.9261 74.6509 71.2724 74.6589L71.2295 77.118L72.7086 77.1422L72.7516 74.7099C73.157 74.7234 73.5516 74.7341 73.9355 74.7422L73.8925 77.1636L75.3717 77.1878L75.4147 74.7341C77.906 74.6348 79.659 74.0388 79.9167 71.7032C80.1234 69.824 79.2536 68.9677 77.8469 68.6052C78.7113 68.1864 79.2617 67.4267 79.157 66.1408ZM76.9932 71.365C76.9637 73.2039 73.8174 72.9381 72.8133 72.922L72.8724 69.663C73.8764 69.6791 77.0281 69.4455 76.9932 71.365ZM76.3865 66.7529C76.357 68.4254 73.7341 68.1838 72.8993 68.1703L72.9503 65.2146C73.7852 65.2281 76.416 65.0079 76.3865 66.7529Z" fill="white"/>
<path d="M106.72 76.24C105.707 76.24 104.787 76.04 103.96 75.64C103.147 75.24 102.493 74.6267 102 73.8C101.52 72.9733 101.28 71.9333 101.28 70.68V62H103.68V70.7C103.68 71.46 103.807 72.0867 104.06 72.58C104.313 73.0733 104.667 73.4467 105.12 73.7C105.587 73.94 106.133 74.06 106.76 74.06C107.4 74.06 107.947 73.94 108.4 73.7C108.867 73.4467 109.22 73.0733 109.46 72.58C109.713 72.0867 109.84 71.46 109.84 70.7V62H112.24V70.68C112.24 71.9333 111.993 72.9733 111.5 73.8C111.007 74.6267 110.34 75.24 109.5 75.64C108.66 76.04 107.733 76.24 106.72 76.24ZM119.036 76.24C118.022 76.24 117.122 76.06 116.336 75.7C115.549 75.34 114.936 74.8267 114.496 74.16C114.056 73.4933 113.829 72.7 113.816 71.78H116.356C116.356 72.2467 116.462 72.6667 116.676 73.04C116.902 73.4 117.209 73.6867 117.596 73.9C117.996 74.1133 118.476 74.22 119.036 74.22C119.516 74.22 119.929 74.1467 120.276 74C120.636 73.84 120.909 73.62 121.096 73.34C121.296 73.0467 121.396 72.7067 121.396 72.32C121.396 71.88 121.289 71.52 121.076 71.24C120.876 70.9467 120.596 70.7 120.236 70.5C119.876 70.3 119.462 70.1267 118.996 69.98C118.529 69.82 118.036 69.6533 117.516 69.48C116.409 69.1067 115.576 68.6333 115.016 68.06C114.456 67.4733 114.176 66.6933 114.176 65.72C114.176 64.9067 114.369 64.2067 114.756 63.62C115.142 63.0333 115.682 62.58 116.376 62.26C117.082 61.9267 117.896 61.76 118.816 61.76C119.749 61.76 120.562 61.9267 121.256 62.26C121.962 62.5933 122.516 63.06 122.916 63.66C123.329 64.2467 123.542 64.9533 123.556 65.78H120.996C120.982 65.4333 120.889 65.1133 120.716 64.82C120.542 64.5133 120.289 64.2667 119.956 64.08C119.636 63.88 119.242 63.78 118.776 63.78C118.376 63.7667 118.016 63.8333 117.696 63.98C117.389 64.1133 117.142 64.3133 116.956 64.58C116.782 64.8333 116.696 65.1533 116.696 65.54C116.696 65.9133 116.776 66.2267 116.936 66.48C117.109 66.72 117.356 66.9267 117.676 67.1C117.996 67.26 118.369 67.4133 118.796 67.56C119.222 67.7067 119.689 67.8667 120.196 68.04C120.889 68.2667 121.516 68.5467 122.076 68.88C122.649 69.2 123.102 69.62 123.436 70.14C123.769 70.66 123.936 71.3333 123.936 72.16C123.936 72.88 123.749 73.5533 123.376 74.18C123.002 74.7933 122.456 75.2933 121.736 75.68C121.016 76.0533 120.116 76.24 119.036 76.24ZM125.669 76V62H130.189C131.816 62 133.156 62.2867 134.209 62.86C135.276 63.4333 136.063 64.2467 136.569 65.3C137.089 66.34 137.349 67.58 137.349 69.02C137.349 70.4333 137.089 71.6667 136.569 72.72C136.063 73.76 135.276 74.5667 134.209 75.14C133.156 75.7133 131.816 76 130.189 76H125.669ZM128.069 73.96H130.069C131.283 73.96 132.236 73.7667 132.929 73.38C133.636 72.98 134.136 72.4133 134.429 71.68C134.736 70.9333 134.889 70.0467 134.889 69.02C134.889 67.98 134.736 67.0933 134.429 66.36C134.136 65.6133 133.636 65.04 132.929 64.64C132.236 64.2267 131.283 64.02 130.069 64.02H128.069V73.96ZM137.254 78.16L142.274 60.5H144.614L139.594 78.16H137.254ZM146.93 76V62H152.41C153.397 62 154.217 62.1533 154.87 62.46C155.537 62.7667 156.037 63.1933 156.37 63.74C156.703 64.2733 156.87 64.8933 156.87 65.6C156.87 66.3067 156.717 66.9 156.41 67.38C156.103 67.86 155.697 68.2267 155.19 68.48C154.697 68.7333 154.157 68.8867 153.57 68.94L153.87 68.72C154.497 68.7333 155.057 68.9 155.55 69.22C156.057 69.54 156.457 69.96 156.75 70.48C157.043 70.9867 157.19 71.5533 157.19 72.18C157.19 72.9133 157.01 73.5733 156.65 74.16C156.303 74.7333 155.79 75.1867 155.11 75.52C154.43 75.84 153.597 76 152.61 76H146.93ZM149.33 74.04H152.25C153.037 74.04 153.65 73.8533 154.09 73.48C154.53 73.1067 154.75 72.5867 154.75 71.92C154.75 71.2533 154.523 70.7267 154.07 70.34C153.617 69.94 152.997 69.74 152.21 69.74H149.33V74.04ZM149.33 67.92H152.07C152.843 67.92 153.43 67.7467 153.83 67.4C154.23 67.04 154.43 66.5467 154.43 65.92C154.43 65.3067 154.23 64.8267 153.83 64.48C153.43 64.12 152.837 63.94 152.05 63.94H149.33V67.92ZM161.953 76V63.94H157.833V62H168.453V63.94H164.333V76H161.953ZM175.505 76.24C174.118 76.24 172.918 75.94 171.905 75.34C170.905 74.7267 170.132 73.88 169.585 72.8C169.052 71.7067 168.785 70.4467 168.785 69.02C168.785 67.58 169.052 66.32 169.585 65.24C170.132 64.1467 170.905 63.2933 171.905 62.68C172.918 62.0667 174.118 61.76 175.505 61.76C177.172 61.76 178.532 62.1733 179.585 63C180.638 63.8133 181.305 64.9667 181.585 66.46H178.945C178.758 65.6733 178.378 65.0533 177.805 64.6C177.232 64.1467 176.458 63.92 175.485 63.92C174.605 63.92 173.845 64.1267 173.205 64.54C172.578 64.94 172.092 65.5267 171.745 66.3C171.412 67.06 171.245 67.9667 171.245 69.02C171.245 70.0733 171.412 70.98 171.745 71.74C172.092 72.4867 172.578 73.0667 173.205 73.48C173.845 73.88 174.605 74.08 175.485 74.08C176.458 74.08 177.232 73.8733 177.805 73.46C178.378 73.0333 178.758 72.4467 178.945 71.7H181.585C181.318 73.1133 180.652 74.2267 179.585 75.04C178.532 75.84 177.172 76.24 175.505 76.24Z" fill="white"/>
<path d="M206 66.5C206 66.5 202.318 71.5 201 71.5C199.682 71.5 196 66.5 196 66.5" stroke="white" stroke-width="1.25" stroke-linecap="round" stroke-linejoin="round"/>
<path d="M284.896 63V62.174C285.559 61.6513 286.189 61.124 286.786 60.592C287.393 60.06 287.929 59.5327 288.396 59.01C288.863 58.478 289.227 57.96 289.488 57.456C289.759 56.952 289.894 56.4667 289.894 56C289.894 55.6547 289.833 55.3373 289.712 55.048C289.591 54.7493 289.395 54.5067 289.124 54.32C288.863 54.1333 288.508 54.04 288.06 54.04C287.621 54.04 287.257 54.138 286.968 54.334C286.679 54.5207 286.459 54.7727 286.31 55.09C286.17 55.398 286.1 55.7387 286.1 56.112H284.966C284.975 55.468 285.111 54.9173 285.372 54.46C285.643 53.9933 286.011 53.6387 286.478 53.396C286.945 53.1533 287.477 53.032 288.074 53.032C288.662 53.032 289.18 53.144 289.628 53.368C290.076 53.5827 290.426 53.9047 290.678 54.334C290.939 54.7633 291.07 55.3047 291.07 55.958C291.07 56.4153 290.972 56.8727 290.776 57.33C290.589 57.7873 290.337 58.2353 290.02 58.674C289.703 59.1033 289.348 59.5187 288.956 59.92C288.573 60.3213 288.177 60.6993 287.766 61.054C287.365 61.4087 286.987 61.7307 286.632 62.02H291.406V63H284.896ZM297.322 63V60.9H292.352V59.99L297.112 53.2H298.484V59.864H299.94V60.9H298.484V63H297.322ZM293.654 59.864H297.378V54.502L293.654 59.864ZM301.318 63V52.92H302.494V57.134C302.727 56.714 303.054 56.3827 303.474 56.14C303.903 55.8973 304.37 55.776 304.874 55.776C305.415 55.776 305.887 55.888 306.288 56.112C306.689 56.3267 306.997 56.658 307.212 57.106C307.427 57.554 307.534 58.1187 307.534 58.8V63H306.372V58.926C306.372 58.2167 306.223 57.6847 305.924 57.33C305.625 56.966 305.191 56.784 304.622 56.784C304.221 56.784 303.857 56.882 303.53 57.078C303.213 57.274 302.961 57.554 302.774 57.918C302.587 58.282 302.494 58.73 302.494 59.262V63H301.318ZM316.099 63L312.417 53.2H313.691L316.785 61.754L319.907 53.2H321.153L317.471 63H316.099ZM324.689 63.168C324.035 63.168 323.447 63.0187 322.925 62.72C322.402 62.412 321.991 61.9827 321.693 61.432C321.394 60.872 321.245 60.2233 321.245 59.486C321.245 58.73 321.394 58.0767 321.693 57.526C322.001 56.966 322.416 56.5367 322.939 56.238C323.471 55.93 324.063 55.776 324.717 55.776C325.389 55.776 325.981 55.93 326.495 56.238C327.017 56.5367 327.428 56.966 327.727 57.526C328.035 58.0767 328.189 58.7253 328.189 59.472C328.189 60.2187 328.035 60.872 327.727 61.432C327.419 61.9827 327.003 62.412 326.481 62.72C325.958 63.0187 325.361 63.168 324.689 63.168ZM324.703 62.16C325.104 62.16 325.477 62.062 325.823 61.866C326.168 61.6607 326.448 61.3573 326.663 60.956C326.877 60.5547 326.985 60.06 326.985 59.472C326.985 58.8747 326.877 58.38 326.663 57.988C326.457 57.5867 326.182 57.288 325.837 57.092C325.501 56.8867 325.127 56.784 324.717 56.784C324.325 56.784 323.951 56.8867 323.597 57.092C323.251 57.288 322.971 57.5867 322.757 57.988C322.551 58.38 322.449 58.8747 322.449 59.472C322.449 60.06 322.551 60.5547 322.757 60.956C322.971 61.3573 323.247 61.6607 323.583 61.866C323.928 62.062 324.301 62.16 324.703 62.16ZM329.837 63V52.92H331.013V63H329.837ZM335.517 63.168C334.975 63.168 334.499 63.0607 334.089 62.846C333.687 62.6313 333.375 62.3 333.151 61.852C332.936 61.404 332.829 60.844 332.829 60.172V55.944H334.005V60.046C334.005 60.746 334.159 61.2733 334.467 61.628C334.775 61.9827 335.209 62.16 335.769 62.16C336.161 62.16 336.515 62.0667 336.833 61.88C337.15 61.684 337.397 61.4087 337.575 61.054C337.761 60.69 337.855 60.2467 337.855 59.724V55.944H339.031V63H337.967L337.897 61.768C337.682 62.2067 337.365 62.552 336.945 62.804C336.525 63.0467 336.049 63.168 335.517 63.168ZM340.98 63V55.944H342.044L342.114 56.952C342.338 56.588 342.637 56.3033 343.01 56.098C343.393 55.8833 343.808 55.776 344.256 55.776C344.62 55.776 344.947 55.8273 345.236 55.93C345.535 56.0233 345.796 56.1727 346.02 56.378C346.244 56.574 346.426 56.826 346.566 57.134C346.809 56.7047 347.14 56.3733 347.56 56.14C347.989 55.8973 348.447 55.776 348.932 55.776C349.473 55.776 349.945 55.888 350.346 56.112C350.757 56.3267 351.069 56.658 351.284 57.106C351.508 57.5447 351.62 58.1047 351.62 58.786V63H350.458V58.912C350.458 58.2027 350.313 57.6707 350.024 57.316C349.735 56.9613 349.329 56.784 348.806 56.784C348.442 56.784 348.115 56.882 347.826 57.078C347.537 57.2647 347.308 57.54 347.14 57.904C346.972 58.268 346.888 58.716 346.888 59.248V63H345.712V58.912C345.712 58.2027 345.567 57.6707 345.278 57.316C344.989 56.9613 344.578 56.784 344.046 56.784C343.691 56.784 343.369 56.882 343.08 57.078C342.8 57.2647 342.576 57.54 342.408 57.904C342.24 58.268 342.156 58.716 342.156 59.248V63H340.98ZM356.543 63.168C355.88 63.168 355.292 63.014 354.779 62.706C354.275 62.398 353.878 61.9687 353.589 61.418C353.299 60.858 353.155 60.2093 353.155 59.472C353.155 58.7253 353.295 58.0767 353.575 57.526C353.864 56.9753 354.265 56.546 354.779 56.238C355.301 55.93 355.899 55.776 356.571 55.776C357.261 55.776 357.845 55.93 358.321 56.238C358.806 56.546 359.175 56.952 359.427 57.456C359.688 57.9507 359.819 58.4967 359.819 59.094C359.819 59.1873 359.819 59.2853 359.819 59.388C359.819 59.4907 359.814 59.6073 359.805 59.738H354.037V58.828H358.671C358.643 58.184 358.428 57.68 358.027 57.316C357.635 56.952 357.14 56.77 356.543 56.77C356.141 56.77 355.768 56.8633 355.423 57.05C355.087 57.2273 354.816 57.4933 354.611 57.848C354.405 58.1933 354.303 58.6273 354.303 59.15V59.542C354.303 60.1207 354.405 60.606 354.611 60.998C354.825 61.39 355.101 61.684 355.437 61.88C355.782 62.076 356.151 62.174 356.543 62.174C357.037 62.174 357.443 62.0667 357.761 61.852C358.087 61.628 358.321 61.3293 358.461 60.956H359.623C359.511 61.376 359.315 61.754 359.035 62.09C358.755 62.426 358.405 62.692 357.985 62.888C357.574 63.0747 357.093 63.168 356.543 63.168Z" fill="white" fill-opacity="0.6"/>
<path d="M288.864 84.192C288.139 84.192 287.52 84.0533 287.008 83.776C286.496 83.488 286.091 83.1093 285.792 82.64C285.493 82.16 285.312 81.6427 285.248 81.088H286.736C286.843 81.6427 287.083 82.0747 287.456 82.384C287.829 82.6827 288.304 82.832 288.88 82.832C289.413 82.832 289.883 82.672 290.288 82.352C290.693 82.032 291.019 81.5467 291.264 80.896C291.509 80.2453 291.648 79.424 291.68 78.432C291.691 78.4 291.696 78.368 291.696 78.336C291.696 78.304 291.696 78.272 291.696 78.24C291.525 78.56 291.291 78.8533 290.992 79.12C290.693 79.3867 290.341 79.6 289.936 79.76C289.541 79.9093 289.099 79.984 288.608 79.984C287.979 79.984 287.387 79.84 286.832 79.552C286.288 79.2533 285.84 78.832 285.488 78.288C285.147 77.744 284.976 77.1093 284.976 76.384C284.976 75.7333 285.131 75.12 285.44 74.544C285.76 73.968 286.208 73.504 286.784 73.152C287.371 72.7893 288.059 72.608 288.848 72.608C289.669 72.608 290.357 72.7627 290.912 73.072C291.477 73.3707 291.925 73.7813 292.256 74.304C292.597 74.816 292.843 75.392 292.992 76.032C293.152 76.6613 293.232 77.312 293.232 77.984C293.232 79.2107 293.061 80.2933 292.72 81.232C292.379 82.16 291.883 82.8853 291.232 83.408C290.581 83.9307 289.792 84.192 288.864 84.192ZM288.96 78.624C289.419 78.624 289.829 78.5227 290.192 78.32C290.555 78.1067 290.843 77.824 291.056 77.472C291.269 77.12 291.376 76.7307 291.376 76.304C291.376 75.856 291.269 75.4613 291.056 75.12C290.843 74.768 290.549 74.496 290.176 74.304C289.813 74.1013 289.403 74 288.944 74C288.496 74 288.091 74.1013 287.728 74.304C287.365 74.496 287.077 74.768 286.864 75.12C286.661 75.4613 286.56 75.8613 286.56 76.32C286.56 76.7787 286.661 77.184 286.864 77.536C287.077 77.8773 287.365 78.144 287.728 78.336C288.091 78.528 288.501 78.624 288.96 78.624ZM299.326 84.192C298.505 84.192 297.811 84.0427 297.246 83.744C296.691 83.4347 296.243 83.024 295.902 82.512C295.561 81.9893 295.31 81.4133 295.15 80.784C295.001 80.144 294.926 79.488 294.926 78.816C294.926 77.5787 295.097 76.496 295.438 75.568C295.79 74.64 296.291 73.9147 296.942 73.392C297.593 72.8693 298.377 72.608 299.294 72.608C300.03 72.608 300.654 72.752 301.166 73.04C301.689 73.3173 302.094 73.6907 302.382 74.16C302.681 74.6293 302.862 75.1467 302.926 75.712H301.438C301.342 75.1573 301.102 74.7307 300.718 74.432C300.345 74.1227 299.865 73.968 299.278 73.968C298.755 73.968 298.286 74.1333 297.87 74.464C297.454 74.784 297.123 75.2747 296.878 75.936C296.643 76.5973 296.51 77.4347 296.478 78.448C296.478 78.4587 296.478 78.4747 296.478 78.496C296.478 78.5173 296.478 78.5387 296.478 78.56C296.638 78.24 296.867 77.9467 297.166 77.68C297.465 77.4133 297.817 77.2053 298.222 77.056C298.638 76.896 299.086 76.816 299.566 76.816C300.195 76.816 300.782 76.9653 301.326 77.264C301.881 77.552 302.329 77.968 302.67 78.512C303.011 79.056 303.182 79.6907 303.182 80.416C303.182 81.0667 303.022 81.68 302.702 82.256C302.393 82.832 301.95 83.3013 301.374 83.664C300.798 84.016 300.115 84.192 299.326 84.192ZM299.214 82.8C299.673 82.8 300.078 82.704 300.43 82.512C300.793 82.3093 301.075 82.032 301.278 81.68C301.491 81.328 301.598 80.928 301.598 80.48C301.598 80.0213 301.491 79.6213 301.278 79.28C301.075 78.928 300.793 78.656 300.43 78.464C300.078 78.272 299.673 78.176 299.214 78.176C298.755 78.176 298.345 78.2827 297.982 78.496C297.619 78.6987 297.331 78.976 297.118 79.328C296.905 79.6693 296.798 80.0587 296.798 80.496C296.798 80.944 296.905 81.344 297.118 81.696C297.331 82.0373 297.619 82.3093 297.982 82.512C298.355 82.704 298.766 82.8 299.214 82.8ZM305.291 84.08C304.981 84.08 304.725 83.984 304.523 83.792C304.331 83.5893 304.235 83.3493 304.235 83.072C304.235 82.784 304.331 82.544 304.523 82.352C304.725 82.1493 304.981 82.048 305.291 82.048C305.6 82.048 305.851 82.1493 306.043 82.352C306.235 82.544 306.331 82.784 306.331 83.072C306.331 83.3493 306.235 83.5893 306.043 83.792C305.851 83.984 305.6 84.08 305.291 84.08ZM307.944 84V82.848C308.691 82.272 309.4 81.6907 310.072 81.104C310.744 80.5173 311.341 79.936 311.864 79.36C312.397 78.7733 312.813 78.2027 313.112 77.648C313.411 77.0827 313.56 76.544 313.56 76.032C313.56 75.6693 313.496 75.3333 313.368 75.024C313.24 74.7147 313.037 74.464 312.76 74.272C312.483 74.0693 312.104 73.968 311.624 73.968C311.165 73.968 310.781 74.0693 310.472 74.272C310.173 74.4747 309.944 74.7467 309.784 75.088C309.635 75.4187 309.56 75.7867 309.56 76.192H308.008C308.019 75.424 308.184 74.7733 308.504 74.24C308.824 73.7067 309.256 73.3013 309.8 73.024C310.355 72.7467 310.973 72.608 311.656 72.608C312.371 72.608 312.989 72.7413 313.512 73.008C314.035 73.264 314.44 73.6427 314.728 74.144C315.016 74.6347 315.16 75.2373 315.16 75.952C315.16 76.464 315.059 76.976 314.856 77.488C314.653 77.9893 314.376 78.48 314.024 78.96C313.683 79.44 313.299 79.904 312.872 80.352C312.445 80.7893 312.003 81.2053 311.544 81.6C311.096 81.9947 310.664 82.352 310.248 82.672H315.512V84H307.944ZM322.272 84V81.712H316.656V80.464L322.016 72.8H323.856V80.32H325.456V81.712H323.856V84H322.272ZM318.4 80.32H322.368V74.56L318.4 80.32ZM331.215 84V72.8H335.359C336.138 72.8 336.788 72.928 337.311 73.184C337.834 73.4293 338.223 73.7707 338.479 74.208C338.746 74.6347 338.879 75.12 338.879 75.664C338.879 76.2293 338.756 76.704 338.511 77.088C338.266 77.472 337.94 77.7707 337.535 77.984C337.14 78.1867 336.714 78.304 336.255 78.336L336.479 78.176C336.97 78.1867 337.418 78.32 337.823 78.576C338.228 78.8213 338.548 79.152 338.783 79.568C339.018 79.984 339.135 80.4427 339.135 80.944C339.135 81.52 338.996 82.0427 338.719 82.512C338.442 82.9707 338.031 83.3333 337.487 83.6C336.943 83.8667 336.276 84 335.487 84H331.215ZM332.815 82.672H335.279C335.983 82.672 336.527 82.512 336.911 82.192C337.306 81.8613 337.503 81.3973 337.503 80.8C337.503 80.2133 337.3 79.744 336.895 79.392C336.5 79.04 335.951 78.864 335.247 78.864H332.815V82.672ZM332.815 77.632H335.183C335.855 77.632 336.367 77.4773 336.719 77.168C337.071 76.848 337.247 76.4107 337.247 75.856C337.247 75.3227 337.071 74.9013 336.719 74.592C336.367 74.272 335.839 74.112 335.135 74.112H332.815V77.632ZM343.432 84V74.112H340.12V72.8H348.36V74.112H345.032V84H343.432ZM354.377 84.192C353.278 84.192 352.329 83.952 351.529 83.472C350.74 82.9813 350.126 82.304 349.689 81.44C349.262 80.5653 349.049 79.552 349.049 78.4C349.049 77.2587 349.262 76.2507 349.689 75.376C350.126 74.5013 350.74 73.824 351.529 73.344C352.329 72.8533 353.278 72.608 354.377 72.608C355.689 72.608 356.75 72.9227 357.561 73.552C358.382 74.1813 358.905 75.0667 359.129 76.208H357.369C357.209 75.5467 356.878 75.0187 356.377 74.624C355.886 74.2293 355.22 74.032 354.377 74.032C353.62 74.032 352.964 74.208 352.409 74.56C351.854 74.912 351.428 75.4133 351.129 76.064C350.83 76.7147 350.681 77.4933 350.681 78.4C350.681 79.3067 350.83 80.0907 351.129 80.752C351.428 81.4027 351.854 81.904 352.409 82.256C352.964 82.5973 353.62 82.768 354.377 82.768C355.22 82.768 355.886 82.5813 356.377 82.208C356.878 81.824 357.209 81.3067 357.369 80.656H359.129C358.905 81.7653 358.382 82.6347 357.561 83.264C356.75 83.8827 355.689 84.192 354.377 84.192Z" fill="white"/>
<line x1="473" y1="132.5" x2="60" y2="132.5" stroke="white" stroke-opacity="0.1" stroke-dasharray="4 4"/>
<path d="M492.57 138.218V125.926H493.536V138.218H492.57ZM493.172 137.168C492.453 137.168 491.828 137.037 491.296 136.776C490.764 136.515 490.353 136.151 490.064 135.684C489.775 135.217 489.63 134.676 489.63 134.06H490.862C490.862 134.443 490.951 134.797 491.128 135.124C491.305 135.441 491.562 135.698 491.898 135.894C492.243 136.081 492.668 136.174 493.172 136.174C493.611 136.174 493.984 136.104 494.292 135.964C494.609 135.815 494.847 135.614 495.006 135.362C495.174 135.11 495.258 134.825 495.258 134.508C495.258 134.125 495.174 133.817 495.006 133.584C494.847 133.341 494.628 133.145 494.348 132.996C494.068 132.847 493.741 132.716 493.368 132.604C493.004 132.483 492.621 132.357 492.22 132.226C491.445 131.965 490.876 131.638 490.512 131.246C490.148 130.854 489.966 130.345 489.966 129.72C489.966 129.188 490.087 128.721 490.33 128.32C490.582 127.919 490.937 127.606 491.394 127.382C491.861 127.149 492.411 127.032 493.046 127.032C493.671 127.032 494.213 127.149 494.67 127.382C495.137 127.615 495.501 127.937 495.762 128.348C496.023 128.749 496.154 129.216 496.154 129.748H494.922C494.922 129.477 494.852 129.211 494.712 128.95C494.572 128.689 494.357 128.474 494.068 128.306C493.788 128.129 493.433 128.04 493.004 128.04C492.649 128.031 492.332 128.091 492.052 128.222C491.781 128.343 491.567 128.521 491.408 128.754C491.259 128.987 491.184 129.272 491.184 129.608C491.184 129.925 491.249 130.182 491.38 130.378C491.52 130.574 491.716 130.742 491.968 130.882C492.229 131.013 492.533 131.134 492.878 131.246C493.223 131.358 493.606 131.484 494.026 131.624C494.502 131.783 494.922 131.979 495.286 132.212C495.659 132.436 495.949 132.725 496.154 133.08C496.369 133.435 496.476 133.887 496.476 134.438C496.476 134.905 496.35 135.348 496.098 135.768C495.855 136.179 495.491 136.515 495.006 136.776C494.521 137.037 493.909 137.168 493.172 137.168ZM501.223 137.168C500.598 137.168 500.028 137.056 499.515 136.832C499.011 136.599 498.61 136.253 498.311 135.796C498.012 135.339 497.854 134.769 497.835 134.088H499.025C499.034 134.461 499.123 134.807 499.291 135.124C499.468 135.432 499.72 135.679 500.047 135.866C500.374 136.053 500.766 136.146 501.223 136.146C501.68 136.146 502.063 136.057 502.371 135.88C502.679 135.703 502.912 135.469 503.071 135.18C503.23 134.881 503.309 134.55 503.309 134.186C503.309 133.729 503.197 133.36 502.973 133.08C502.758 132.791 502.464 132.581 502.091 132.45C501.727 132.31 501.326 132.24 500.887 132.24H500.159V131.246H500.887C501.531 131.246 502.035 131.097 502.399 130.798C502.763 130.499 502.945 130.089 502.945 129.566C502.945 129.137 502.8 128.777 502.511 128.488C502.231 128.199 501.802 128.054 501.223 128.054C500.672 128.054 500.234 128.213 499.907 128.53C499.58 128.847 499.394 129.253 499.347 129.748H498.157C498.185 129.216 498.33 128.745 498.591 128.334C498.852 127.923 499.207 127.606 499.655 127.382C500.103 127.149 500.63 127.032 501.237 127.032C501.872 127.032 502.404 127.144 502.833 127.368C503.262 127.592 503.584 127.891 503.799 128.264C504.023 128.637 504.135 129.048 504.135 129.496C504.135 129.832 504.074 130.149 503.953 130.448C503.832 130.737 503.65 130.994 503.407 131.218C503.164 131.442 502.856 131.601 502.483 131.694C502.866 131.769 503.206 131.913 503.505 132.128C503.813 132.343 504.056 132.623 504.233 132.968C504.41 133.313 504.499 133.719 504.499 134.186C504.499 134.718 504.373 135.213 504.121 135.67C503.878 136.118 503.514 136.482 503.029 136.762C502.544 137.033 501.942 137.168 501.223 137.168ZM509.649 137.168C509.014 137.168 508.445 137.051 507.941 136.818C507.437 136.575 507.035 136.244 506.737 135.824C506.438 135.395 506.289 134.9 506.289 134.34C506.289 133.939 506.368 133.565 506.527 133.22C506.685 132.875 506.905 132.576 507.185 132.324C507.474 132.063 507.805 131.881 508.179 131.778C507.656 131.591 507.25 131.302 506.961 130.91C506.681 130.518 506.541 130.093 506.541 129.636C506.541 129.151 506.667 128.712 506.919 128.32C507.171 127.928 507.525 127.615 507.983 127.382C508.449 127.149 509.005 127.032 509.649 127.032C510.302 127.032 510.857 127.149 511.315 127.382C511.781 127.615 512.136 127.928 512.379 128.32C512.631 128.712 512.757 129.151 512.757 129.636C512.757 130.093 512.612 130.518 512.323 130.91C512.043 131.302 511.641 131.591 511.119 131.778C511.501 131.881 511.833 132.063 512.113 132.324C512.402 132.576 512.621 132.875 512.771 133.22C512.929 133.565 513.009 133.939 513.009 134.34C513.009 134.9 512.859 135.395 512.561 135.824C512.271 136.244 511.87 136.575 511.357 136.818C510.853 137.051 510.283 137.168 509.649 137.168ZM509.649 136.132C510.386 136.132 510.932 135.964 511.287 135.628C511.651 135.283 511.833 134.83 511.833 134.27C511.833 133.635 511.632 133.155 511.231 132.828C510.839 132.501 510.311 132.338 509.649 132.338C508.986 132.338 508.454 132.501 508.053 132.828C507.661 133.155 507.465 133.635 507.465 134.27C507.465 134.83 507.647 135.283 508.011 135.628C508.375 135.964 508.921 136.132 509.649 136.132ZM509.649 131.358C510.237 131.358 510.703 131.204 511.049 130.896C511.394 130.588 511.567 130.191 511.567 129.706C511.567 129.155 511.394 128.74 511.049 128.46C510.713 128.18 510.246 128.04 509.649 128.04C509.061 128.04 508.594 128.18 508.249 128.46C507.913 128.74 507.745 129.155 507.745 129.706C507.745 130.191 507.913 130.588 508.249 130.896C508.594 131.204 509.061 131.358 509.649 131.358ZM514.96 137V127.2H516.136V131.638L520.224 127.2H521.708L518.068 131.106L521.764 137H520.336L517.228 132.016L516.136 133.178V137H514.96Z" fill="white" fill-opacity="0.4"/>
<line x1="473" y1="168.5" x2="60" y2="168.5" stroke="white" stroke-opacity="0.1" stroke-dasharray="4 4"/>
<path d="M492.57 174.218V161.926H493.536V174.218H492.57ZM493.172 173.168C492.453 173.168 491.828 173.037 491.296 172.776C490.764 172.515 490.353 172.151 490.064 171.684C489.775 171.217 489.63 170.676 489.63 170.06H490.862C490.862 170.443 490.951 170.797 491.128 171.124C491.305 171.441 491.562 171.698 491.898 171.894C492.243 172.081 492.668 172.174 493.172 172.174C493.611 172.174 493.984 172.104 494.292 171.964C494.609 171.815 494.847 171.614 495.006 171.362C495.174 171.11 495.258 170.825 495.258 170.508C495.258 170.125 495.174 169.817 495.006 169.584C494.847 169.341 494.628 169.145 494.348 168.996C494.068 168.847 493.741 168.716 493.368 168.604C493.004 168.483 492.621 168.357 492.22 168.226C491.445 167.965 490.876 167.638 490.512 167.246C490.148 166.854 489.966 166.345 489.966 165.72C489.966 165.188 490.087 164.721 490.33 164.32C490.582 163.919 490.937 163.606 491.394 163.382C491.861 163.149 492.411 163.032 493.046 163.032C493.671 163.032 494.213 163.149 494.67 163.382C495.137 163.615 495.501 163.937 495.762 164.348C496.023 164.749 496.154 165.216 496.154 165.748H494.922C494.922 165.477 494.852 165.211 494.712 164.95C494.572 164.689 494.357 164.474 494.068 164.306C493.788 164.129 493.433 164.04 493.004 164.04C492.649 164.031 492.332 164.091 492.052 164.222C491.781 164.343 491.567 164.521 491.408 164.754C491.259 164.987 491.184 165.272 491.184 165.608C491.184 165.925 491.249 166.182 491.38 166.378C491.52 166.574 491.716 166.742 491.968 166.882C492.229 167.013 492.533 167.134 492.878 167.246C493.223 167.358 493.606 167.484 494.026 167.624C494.502 167.783 494.922 167.979 495.286 168.212C495.659 168.436 495.949 168.725 496.154 169.08C496.369 169.435 496.476 169.887 496.476 170.438C496.476 170.905 496.35 171.348 496.098 171.768C495.855 172.179 495.491 172.515 495.006 172.776C494.521 173.037 493.909 173.168 493.172 173.168ZM501.223 173.168C500.598 173.168 500.028 173.056 499.515 172.832C499.011 172.599 498.61 172.253 498.311 171.796C498.012 171.339 497.854 170.769 497.835 170.088H499.025C499.034 170.461 499.123 170.807 499.291 171.124C499.468 171.432 499.72 171.679 500.047 171.866C500.374 172.053 500.766 172.146 501.223 172.146C501.68 172.146 502.063 172.057 502.371 171.88C502.679 171.703 502.912 171.469 503.071 171.18C503.23 170.881 503.309 170.55 503.309 170.186C503.309 169.729 503.197 169.36 502.973 169.08C502.758 168.791 502.464 168.581 502.091 168.45C501.727 168.31 501.326 168.24 500.887 168.24H500.159V167.246H500.887C501.531 167.246 502.035 167.097 502.399 166.798C502.763 166.499 502.945 166.089 502.945 165.566C502.945 165.137 502.8 164.777 502.511 164.488C502.231 164.199 501.802 164.054 501.223 164.054C500.672 164.054 500.234 164.213 499.907 164.53C499.58 164.847 499.394 165.253 499.347 165.748H498.157C498.185 165.216 498.33 164.745 498.591 164.334C498.852 163.923 499.207 163.606 499.655 163.382C500.103 163.149 500.63 163.032 501.237 163.032C501.872 163.032 502.404 163.144 502.833 163.368C503.262 163.592 503.584 163.891 503.799 164.264C504.023 164.637 504.135 165.048 504.135 165.496C504.135 165.832 504.074 166.149 503.953 166.448C503.832 166.737 503.65 166.994 503.407 167.218C503.164 167.442 502.856 167.601 502.483 167.694C502.866 167.769 503.206 167.913 503.505 168.128C503.813 168.343 504.056 168.623 504.233 168.968C504.41 169.313 504.499 169.719 504.499 170.186C504.499 170.718 504.373 171.213 504.121 171.67C503.878 172.118 503.514 172.482 503.029 172.762C502.544 173.033 501.942 173.168 501.223 173.168ZM509.957 173.168C509.247 173.168 508.65 173.037 508.165 172.776C507.679 172.505 507.292 172.151 507.003 171.712C506.713 171.264 506.499 170.76 506.359 170.2C506.228 169.64 506.163 169.071 506.163 168.492C506.163 167.409 506.312 166.462 506.611 165.65C506.909 164.829 507.339 164.189 507.899 163.732C508.468 163.265 509.149 163.032 509.943 163.032C510.559 163.032 511.086 163.153 511.525 163.396C511.973 163.629 512.327 163.947 512.589 164.348C512.85 164.749 513.009 165.197 513.065 165.692H511.973C511.879 165.169 511.651 164.768 511.287 164.488C510.932 164.199 510.479 164.054 509.929 164.054C509.443 164.054 509.005 164.208 508.613 164.516C508.221 164.815 507.908 165.277 507.675 165.902C507.451 166.518 507.32 167.307 507.283 168.268C507.283 168.277 507.283 168.291 507.283 168.31C507.283 168.329 507.283 168.347 507.283 168.366C507.432 168.077 507.637 167.806 507.899 167.554C508.169 167.302 508.491 167.101 508.865 166.952C509.238 166.803 509.653 166.728 510.111 166.728C510.661 166.728 511.179 166.859 511.665 167.12C512.15 167.381 512.542 167.75 512.841 168.226C513.149 168.693 513.303 169.243 513.303 169.878C513.303 170.429 513.167 170.956 512.897 171.46C512.635 171.964 512.253 172.375 511.749 172.692C511.245 173.009 510.647 173.168 509.957 173.168ZM509.873 172.132C510.302 172.132 510.685 172.039 511.021 171.852C511.366 171.656 511.632 171.395 511.819 171.068C512.015 170.732 512.113 170.354 512.113 169.934C512.113 169.495 512.015 169.113 511.819 168.786C511.632 168.459 511.366 168.207 511.021 168.03C510.685 167.843 510.302 167.75 509.873 167.75C509.443 167.75 509.056 167.848 508.711 168.044C508.365 168.24 508.09 168.506 507.885 168.842C507.689 169.169 507.591 169.537 507.591 169.948C507.591 170.368 507.689 170.746 507.885 171.082C508.09 171.409 508.365 171.665 508.711 171.852C509.056 172.039 509.443 172.132 509.873 172.132ZM515.234 173V163.2H516.41V167.638L520.498 163.2H521.982L518.342 167.106L522.038 173H520.61L517.502 168.016L516.41 169.178V173H515.234Z" fill="white" fill-opacity="0.4"/>
<line x1="473" y1="204.5" x2="60" y2="204.5" stroke="white" stroke-opacity="0.1" stroke-dasharray="4 4"/>
<path d="M492.57 210.218V197.926H493.536V210.218H492.57ZM493.172 209.168C492.453 209.168 491.828 209.037 491.296 208.776C490.764 208.515 490.353 208.151 490.064 207.684C489.775 207.217 489.63 206.676 489.63 206.06H490.862C490.862 206.443 490.951 206.797 491.128 207.124C491.305 207.441 491.562 207.698 491.898 207.894C492.243 208.081 492.668 208.174 493.172 208.174C493.611 208.174 493.984 208.104 494.292 207.964C494.609 207.815 494.847 207.614 495.006 207.362C495.174 207.11 495.258 206.825 495.258 206.508C495.258 206.125 495.174 205.817 495.006 205.584C494.847 205.341 494.628 205.145 494.348 204.996C494.068 204.847 493.741 204.716 493.368 204.604C493.004 204.483 492.621 204.357 492.22 204.226C491.445 203.965 490.876 203.638 490.512 203.246C490.148 202.854 489.966 202.345 489.966 201.72C489.966 201.188 490.087 200.721 490.33 200.32C490.582 199.919 490.937 199.606 491.394 199.382C491.861 199.149 492.411 199.032 493.046 199.032C493.671 199.032 494.213 199.149 494.67 199.382C495.137 199.615 495.501 199.937 495.762 200.348C496.023 200.749 496.154 201.216 496.154 201.748H494.922C494.922 201.477 494.852 201.211 494.712 200.95C494.572 200.689 494.357 200.474 494.068 200.306C493.788 200.129 493.433 200.04 493.004 200.04C492.649 200.031 492.332 200.091 492.052 200.222C491.781 200.343 491.567 200.521 491.408 200.754C491.259 200.987 491.184 201.272 491.184 201.608C491.184 201.925 491.249 202.182 491.38 202.378C491.52 202.574 491.716 202.742 491.968 202.882C492.229 203.013 492.533 203.134 492.878 203.246C493.223 203.358 493.606 203.484 494.026 203.624C494.502 203.783 494.922 203.979 495.286 204.212C495.659 204.436 495.949 204.725 496.154 205.08C496.369 205.435 496.476 205.887 496.476 206.438C496.476 206.905 496.35 207.348 496.098 207.768C495.855 208.179 495.491 208.515 495.006 208.776C494.521 209.037 493.909 209.168 493.172 209.168ZM501.223 209.168C500.598 209.168 500.028 209.056 499.515 208.832C499.011 208.599 498.61 208.253 498.311 207.796C498.012 207.339 497.854 206.769 497.835 206.088H499.025C499.034 206.461 499.123 206.807 499.291 207.124C499.468 207.432 499.72 207.679 500.047 207.866C500.374 208.053 500.766 208.146 501.223 208.146C501.68 208.146 502.063 208.057 502.371 207.88C502.679 207.703 502.912 207.469 503.071 207.18C503.23 206.881 503.309 206.55 503.309 206.186C503.309 205.729 503.197 205.36 502.973 205.08C502.758 204.791 502.464 204.581 502.091 204.45C501.727 204.31 501.326 204.24 500.887 204.24H500.159V203.246H500.887C501.531 203.246 502.035 203.097 502.399 202.798C502.763 202.499 502.945 202.089 502.945 201.566C502.945 201.137 502.8 200.777 502.511 200.488C502.231 200.199 501.802 200.054 501.223 200.054C500.672 200.054 500.234 200.213 499.907 200.53C499.58 200.847 499.394 201.253 499.347 201.748H498.157C498.185 201.216 498.33 200.745 498.591 200.334C498.852 199.923 499.207 199.606 499.655 199.382C500.103 199.149 500.63 199.032 501.237 199.032C501.872 199.032 502.404 199.144 502.833 199.368C503.262 199.592 503.584 199.891 503.799 200.264C504.023 200.637 504.135 201.048 504.135 201.496C504.135 201.832 504.074 202.149 503.953 202.448C503.832 202.737 503.65 202.994 503.407 203.218C503.164 203.442 502.856 203.601 502.483 203.694C502.866 203.769 503.206 203.913 503.505 204.128C503.813 204.343 504.056 204.623 504.233 204.968C504.41 205.313 504.499 205.719 504.499 206.186C504.499 206.718 504.373 207.213 504.121 207.67C503.878 208.118 503.514 208.482 503.029 208.762C502.544 209.033 501.942 209.168 501.223 209.168ZM510.881 209V206.9H505.911V205.99L510.671 199.2H512.043V205.864H513.499V206.9H512.043V209H510.881ZM507.213 205.864H510.937V200.502L507.213 205.864ZM514.946 209V199.2H516.122V203.638L520.21 199.2H521.694L518.054 203.106L521.75 209H520.322L517.214 204.016L516.122 205.178V209H514.946Z" fill="white" fill-opacity="0.4"/>
<line x1="473" y1="240.5" x2="60" y2="240.5" stroke="white" stroke-opacity="0.1" stroke-dasharray="4 4"/>
<path d="M492.57 246.218V233.926H493.536V246.218H492.57ZM493.172 245.168C492.453 245.168 491.828 245.037 491.296 244.776C490.764 244.515 490.353 244.151 490.064 243.684C489.775 243.217 489.63 242.676 489.63 242.06H490.862C490.862 242.443 490.951 242.797 491.128 243.124C491.305 243.441 491.562 243.698 491.898 243.894C492.243 244.081 492.668 244.174 493.172 244.174C493.611 244.174 493.984 244.104 494.292 243.964C494.609 243.815 494.847 243.614 495.006 243.362C495.174 243.11 495.258 242.825 495.258 242.508C495.258 242.125 495.174 241.817 495.006 241.584C494.847 241.341 494.628 241.145 494.348 240.996C494.068 240.847 493.741 240.716 493.368 240.604C493.004 240.483 492.621 240.357 492.22 240.226C491.445 239.965 490.876 239.638 490.512 239.246C490.148 238.854 489.966 238.345 489.966 237.72C489.966 237.188 490.087 236.721 490.33 236.32C490.582 235.919 490.937 235.606 491.394 235.382C491.861 235.149 492.411 235.032 493.046 235.032C493.671 235.032 494.213 235.149 494.67 235.382C495.137 235.615 495.501 235.937 495.762 236.348C496.023 236.749 496.154 237.216 496.154 237.748H494.922C494.922 237.477 494.852 237.211 494.712 236.95C494.572 236.689 494.357 236.474 494.068 236.306C493.788 236.129 493.433 236.04 493.004 236.04C492.649 236.031 492.332 236.091 492.052 236.222C491.781 236.343 491.567 236.521 491.408 236.754C491.259 236.987 491.184 237.272 491.184 237.608C491.184 237.925 491.249 238.182 491.38 238.378C491.52 238.574 491.716 238.742 491.968 238.882C492.229 239.013 492.533 239.134 492.878 239.246C493.223 239.358 493.606 239.484 494.026 239.624C494.502 239.783 494.922 239.979 495.286 240.212C495.659 240.436 495.949 240.725 496.154 241.08C496.369 241.435 496.476 241.887 496.476 242.438C496.476 242.905 496.35 243.348 496.098 243.768C495.855 244.179 495.491 244.515 495.006 244.776C494.521 245.037 493.909 245.168 493.172 245.168ZM501.223 245.168C500.598 245.168 500.028 245.056 499.515 244.832C499.011 244.599 498.61 244.253 498.311 243.796C498.012 243.339 497.854 242.769 497.835 242.088H499.025C499.034 242.461 499.123 242.807 499.291 243.124C499.468 243.432 499.72 243.679 500.047 243.866C500.374 244.053 500.766 244.146 501.223 244.146C501.68 244.146 502.063 244.057 502.371 243.88C502.679 243.703 502.912 243.469 503.071 243.18C503.23 242.881 503.309 242.55 503.309 242.186C503.309 241.729 503.197 241.36 502.973 241.08C502.758 240.791 502.464 240.581 502.091 240.45C501.727 240.31 501.326 240.24 500.887 240.24H500.159V239.246H500.887C501.531 239.246 502.035 239.097 502.399 238.798C502.763 238.499 502.945 238.089 502.945 237.566C502.945 237.137 502.8 236.777 502.511 236.488C502.231 236.199 501.802 236.054 501.223 236.054C500.672 236.054 500.234 236.213 499.907 236.53C499.58 236.847 499.394 237.253 499.347 237.748H498.157C498.185 237.216 498.33 236.745 498.591 236.334C498.852 235.923 499.207 235.606 499.655 235.382C500.103 235.149 500.63 235.032 501.237 235.032C501.872 235.032 502.404 235.144 502.833 235.368C503.262 235.592 503.584 235.891 503.799 236.264C504.023 236.637 504.135 237.048 504.135 237.496C504.135 237.832 504.074 238.149 503.953 238.448C503.832 238.737 503.65 238.994 503.407 239.218C503.164 239.442 502.856 239.601 502.483 239.694C502.866 239.769 503.206 239.913 503.505 240.128C503.813 240.343 504.056 240.623 504.233 240.968C504.41 241.313 504.499 241.719 504.499 242.186C504.499 242.718 504.373 243.213 504.121 243.67C503.878 244.118 503.514 244.482 503.029 244.762C502.544 245.033 501.942 245.168 501.223 245.168ZM506.289 245V244.174C506.951 243.651 507.581 243.124 508.179 242.592C508.785 242.06 509.322 241.533 509.789 241.01C510.255 240.478 510.619 239.96 510.881 239.456C511.151 238.952 511.287 238.467 511.287 238C511.287 237.655 511.226 237.337 511.105 237.048C510.983 236.749 510.787 236.507 510.517 236.32C510.255 236.133 509.901 236.04 509.453 236.04C509.014 236.04 508.65 236.138 508.361 236.334C508.071 236.521 507.852 236.773 507.703 237.09C507.563 237.398 507.493 237.739 507.493 238.112H506.359C506.368 237.468 506.503 236.917 506.765 236.46C507.035 235.993 507.404 235.639 507.871 235.396C508.337 235.153 508.869 235.032 509.467 235.032C510.055 235.032 510.573 235.144 511.021 235.368C511.469 235.583 511.819 235.905 512.071 236.334C512.332 236.763 512.463 237.305 512.463 237.958C512.463 238.415 512.365 238.873 512.169 239.33C511.982 239.787 511.73 240.235 511.413 240.674C511.095 241.103 510.741 241.519 510.349 241.92C509.966 242.321 509.569 242.699 509.159 243.054C508.757 243.409 508.379 243.731 508.025 244.02H512.799V245H506.289ZM514.509 245V235.2H515.685V239.638L519.773 235.2H521.257L517.617 239.106L521.313 245H519.885L516.777 240.016L515.685 241.178V245H514.509Z" fill="white" fill-opacity="0.4"/>
<line x1="473" y1="276.5" x2="60" y2="276.5" stroke="white" stroke-opacity="0.1" stroke-dasharray="4 4"/>
<path d="M492.57 282.218V269.926H493.536V282.218H492.57ZM493.172 281.168C492.453 281.168 491.828 281.037 491.296 280.776C490.764 280.515 490.353 280.151 490.064 279.684C489.775 279.217 489.63 278.676 489.63 278.06H490.862C490.862 278.443 490.951 278.797 491.128 279.124C491.305 279.441 491.562 279.698 491.898 279.894C492.243 280.081 492.668 280.174 493.172 280.174C493.611 280.174 493.984 280.104 494.292 279.964C494.609 279.815 494.847 279.614 495.006 279.362C495.174 279.11 495.258 278.825 495.258 278.508C495.258 278.125 495.174 277.817 495.006 277.584C494.847 277.341 494.628 277.145 494.348 276.996C494.068 276.847 493.741 276.716 493.368 276.604C493.004 276.483 492.621 276.357 492.22 276.226C491.445 275.965 490.876 275.638 490.512 275.246C490.148 274.854 489.966 274.345 489.966 273.72C489.966 273.188 490.087 272.721 490.33 272.32C490.582 271.919 490.937 271.606 491.394 271.382C491.861 271.149 492.411 271.032 493.046 271.032C493.671 271.032 494.213 271.149 494.67 271.382C495.137 271.615 495.501 271.937 495.762 272.348C496.023 272.749 496.154 273.216 496.154 273.748H494.922C494.922 273.477 494.852 273.211 494.712 272.95C494.572 272.689 494.357 272.474 494.068 272.306C493.788 272.129 493.433 272.04 493.004 272.04C492.649 272.031 492.332 272.091 492.052 272.222C491.781 272.343 491.567 272.521 491.408 272.754C491.259 272.987 491.184 273.272 491.184 273.608C491.184 273.925 491.249 274.182 491.38 274.378C491.52 274.574 491.716 274.742 491.968 274.882C492.229 275.013 492.533 275.134 492.878 275.246C493.223 275.358 493.606 275.484 494.026 275.624C494.502 275.783 494.922 275.979 495.286 276.212C495.659 276.436 495.949 276.725 496.154 277.08C496.369 277.435 496.476 277.887 496.476 278.438C496.476 278.905 496.35 279.348 496.098 279.768C495.855 280.179 495.491 280.515 495.006 280.776C494.521 281.037 493.909 281.168 493.172 281.168ZM501.223 281.168C500.598 281.168 500.028 281.056 499.515 280.832C499.011 280.599 498.61 280.253 498.311 279.796C498.012 279.339 497.854 278.769 497.835 278.088H499.025C499.034 278.461 499.123 278.807 499.291 279.124C499.468 279.432 499.72 279.679 500.047 279.866C500.374 280.053 500.766 280.146 501.223 280.146C501.68 280.146 502.063 280.057 502.371 279.88C502.679 279.703 502.912 279.469 503.071 279.18C503.23 278.881 503.309 278.55 503.309 278.186C503.309 277.729 503.197 277.36 502.973 277.08C502.758 276.791 502.464 276.581 502.091 276.45C501.727 276.31 501.326 276.24 500.887 276.24H500.159V275.246H500.887C501.531 275.246 502.035 275.097 502.399 274.798C502.763 274.499 502.945 274.089 502.945 273.566C502.945 273.137 502.8 272.777 502.511 272.488C502.231 272.199 501.802 272.054 501.223 272.054C500.672 272.054 500.234 272.213 499.907 272.53C499.58 272.847 499.394 273.253 499.347 273.748H498.157C498.185 273.216 498.33 272.745 498.591 272.334C498.852 271.923 499.207 271.606 499.655 271.382C500.103 271.149 500.63 271.032 501.237 271.032C501.872 271.032 502.404 271.144 502.833 271.368C503.262 271.592 503.584 271.891 503.799 272.264C504.023 272.637 504.135 273.048 504.135 273.496C504.135 273.832 504.074 274.149 503.953 274.448C503.832 274.737 503.65 274.994 503.407 275.218C503.164 275.442 502.856 275.601 502.483 275.694C502.866 275.769 503.206 275.913 503.505 276.128C503.813 276.343 504.056 276.623 504.233 276.968C504.41 277.313 504.499 277.719 504.499 278.186C504.499 278.718 504.373 279.213 504.121 279.67C503.878 280.118 503.514 280.482 503.029 280.762C502.544 281.033 501.942 281.168 501.223 281.168ZM510.195 281.168C509.336 281.168 508.594 280.958 507.969 280.538C507.353 280.109 506.881 279.516 506.555 278.76C506.228 277.995 506.065 277.108 506.065 276.1C506.065 275.092 506.228 274.21 506.555 273.454C506.881 272.689 507.353 272.096 507.969 271.676C508.594 271.247 509.336 271.032 510.195 271.032C511.053 271.032 511.786 271.247 512.393 271.676C513.009 272.096 513.48 272.689 513.807 273.454C514.133 274.21 514.297 275.092 514.297 276.1C514.297 277.108 514.133 277.995 513.807 278.76C513.48 279.516 513.009 280.109 512.393 280.538C511.786 280.958 511.053 281.168 510.195 281.168ZM510.181 280.132C510.741 280.132 511.24 279.973 511.679 279.656C512.117 279.329 512.463 278.867 512.715 278.27C512.967 277.663 513.093 276.94 513.093 276.1C513.093 275.26 512.967 274.541 512.715 273.944C512.463 273.337 512.117 272.875 511.679 272.558C511.24 272.241 510.741 272.082 510.181 272.082C509.621 272.082 509.117 272.241 508.669 272.558C508.23 272.875 507.885 273.337 507.633 273.944C507.39 274.541 507.269 275.26 507.269 276.1C507.269 276.94 507.39 277.663 507.633 278.27C507.885 278.867 508.23 279.329 508.669 279.656C509.117 279.973 509.621 280.132 510.181 280.132ZM516.013 281V271.2H517.189V275.638L521.277 271.2H522.761L519.121 275.106L522.817 281H521.389L518.281 276.016L517.189 277.178V281H516.013Z" fill="white" fill-opacity="0.4"/>
<path d="M63.234 313.168C62.646 313.168 62.1373 313.056 61.708 312.832C61.288 312.608 60.9613 312.286 60.728 311.866C60.504 311.446 60.392 310.947 60.392 310.368H61.582C61.582 310.695 61.6333 310.993 61.736 311.264C61.848 311.525 62.0207 311.735 62.254 311.894C62.4967 312.043 62.8187 312.118 63.22 312.118C63.612 312.118 63.92 312.043 64.144 311.894C64.3773 311.745 64.5407 311.544 64.634 311.292C64.7367 311.031 64.788 310.737 64.788 310.41V303.2H65.964V310.41C65.964 311.287 65.7213 311.969 65.236 312.454C64.76 312.93 64.0927 313.168 63.234 313.168ZM70.2897 313.168C69.7203 313.168 69.2443 313.07 68.8617 312.874C68.479 312.669 68.1943 312.403 68.0077 312.076C67.821 311.74 67.7277 311.376 67.7277 310.984C67.7277 310.508 67.849 310.107 68.0917 309.78C68.3437 309.444 68.6937 309.192 69.1417 309.024C69.599 308.847 70.1357 308.758 70.7517 308.758H72.6137C72.6137 308.319 72.5437 307.955 72.4037 307.666C72.273 307.367 72.077 307.143 71.8157 306.994C71.5637 306.845 71.2463 306.77 70.8637 306.77C70.4157 306.77 70.0283 306.882 69.7017 307.106C69.375 307.33 69.1743 307.661 69.0997 308.1H67.8957C67.9517 307.596 68.1197 307.176 68.3997 306.84C68.689 306.495 69.053 306.233 69.4917 306.056C69.9303 305.869 70.3877 305.776 70.8637 305.776C71.517 305.776 72.0583 305.897 72.4877 306.14C72.9263 306.373 73.253 306.705 73.4677 307.134C73.6823 307.554 73.7897 308.053 73.7897 308.632V313H72.7397L72.6697 311.754C72.5763 311.95 72.455 312.137 72.3057 312.314C72.1657 312.482 71.9977 312.631 71.8017 312.762C71.6057 312.883 71.3817 312.981 71.1297 313.056C70.887 313.131 70.607 313.168 70.2897 313.168ZM70.4717 312.174C70.7983 312.174 71.0923 312.109 71.3537 311.978C71.6243 311.838 71.853 311.651 72.0397 311.418C72.2263 311.175 72.3663 310.909 72.4597 310.62C72.5623 310.331 72.6137 310.027 72.6137 309.71V309.668H70.8497C70.3923 309.668 70.0237 309.724 69.7437 309.836C69.4637 309.939 69.263 310.088 69.1417 310.284C69.0203 310.471 68.9597 310.685 68.9597 310.928C68.9597 311.18 69.0157 311.399 69.1277 311.586C69.249 311.773 69.4217 311.917 69.6457 312.02C69.879 312.123 70.1543 312.174 70.4717 312.174ZM75.6089 313V305.944H76.6729L76.7289 307.176C76.9529 306.737 77.2702 306.397 77.6809 306.154C78.1009 305.902 78.5769 305.776 79.1089 305.776C79.6596 305.776 80.1356 305.888 80.5369 306.112C80.9382 306.327 81.2509 306.658 81.4749 307.106C81.6989 307.545 81.8109 308.105 81.8109 308.786V313H80.6349V308.912C80.6349 308.203 80.4762 307.671 80.1589 307.316C79.8509 306.961 79.4122 306.784 78.8429 306.784C78.4509 306.784 78.1009 306.882 77.7929 307.078C77.4849 307.265 77.2376 307.54 77.0509 307.904C76.8736 308.259 76.7849 308.702 76.7849 309.234V313H75.6089Z" fill="white" fill-opacity="0.4"/>
<path d="M124.05 313V303.2H130.014V304.166H125.226V307.61H129.3V308.562H125.226V313H124.05ZM134.265 313.168C133.603 313.168 133.015 313.014 132.501 312.706C131.997 312.398 131.601 311.969 131.311 311.418C131.022 310.858 130.877 310.209 130.877 309.472C130.877 308.725 131.017 308.077 131.297 307.526C131.587 306.975 131.988 306.546 132.501 306.238C133.024 305.93 133.621 305.776 134.293 305.776C134.984 305.776 135.567 305.93 136.043 306.238C136.529 306.546 136.897 306.952 137.149 307.456C137.411 307.951 137.541 308.497 137.541 309.094C137.541 309.187 137.541 309.285 137.541 309.388C137.541 309.491 137.537 309.607 137.527 309.738H131.759V308.828H136.393C136.365 308.184 136.151 307.68 135.749 307.316C135.357 306.952 134.863 306.77 134.265 306.77C133.864 306.77 133.491 306.863 133.145 307.05C132.809 307.227 132.539 307.493 132.333 307.848C132.128 308.193 132.025 308.627 132.025 309.15V309.542C132.025 310.121 132.128 310.606 132.333 310.998C132.548 311.39 132.823 311.684 133.159 311.88C133.505 312.076 133.873 312.174 134.265 312.174C134.76 312.174 135.166 312.067 135.483 311.852C135.81 311.628 136.043 311.329 136.183 310.956H137.345C137.233 311.376 137.037 311.754 136.757 312.09C136.477 312.426 136.127 312.692 135.707 312.888C135.297 313.075 134.816 313.168 134.265 313.168ZM142.824 313.168C142.423 313.168 142.059 313.112 141.732 313C141.415 312.879 141.135 312.72 140.892 312.524C140.65 312.328 140.449 312.099 140.29 311.838L140.192 313H139.128V302.92H140.304V307.106C140.528 306.742 140.85 306.429 141.27 306.168C141.69 305.907 142.208 305.776 142.824 305.776C143.506 305.776 144.103 305.939 144.616 306.266C145.13 306.583 145.526 307.022 145.806 307.582C146.096 308.133 146.24 308.763 146.24 309.472C146.24 310.181 146.096 310.816 145.806 311.376C145.526 311.936 145.13 312.375 144.616 312.692C144.103 313.009 143.506 313.168 142.824 313.168ZM142.684 312.146C143.142 312.146 143.548 312.034 143.902 311.81C144.257 311.586 144.532 311.278 144.728 310.886C144.934 310.485 145.036 310.013 145.036 309.472C145.036 308.94 144.934 308.473 144.728 308.072C144.532 307.671 144.257 307.358 143.902 307.134C143.548 306.91 143.142 306.798 142.684 306.798C142.218 306.798 141.807 306.91 141.452 307.134C141.098 307.358 140.822 307.671 140.626 308.072C140.43 308.473 140.332 308.94 140.332 309.472C140.332 310.013 140.43 310.485 140.626 310.886C140.822 311.278 141.098 311.586 141.452 311.81C141.807 312.034 142.218 312.146 142.684 312.146Z" fill="white" fill-opacity="0.4"/>
<path d="M188.05 313V303.2H189.422L192.88 310.046L196.352 303.2H197.738V313H196.562V305.3L193.328 311.628H192.446L189.226 305.328V313H188.05ZM202.047 313.168C201.478 313.168 201.002 313.07 200.619 312.874C200.237 312.669 199.952 312.403 199.765 312.076C199.579 311.74 199.485 311.376 199.485 310.984C199.485 310.508 199.607 310.107 199.849 309.78C200.101 309.444 200.451 309.192 200.899 309.024C201.357 308.847 201.893 308.758 202.509 308.758H204.371C204.371 308.319 204.301 307.955 204.161 307.666C204.031 307.367 203.835 307.143 203.573 306.994C203.321 306.845 203.004 306.77 202.621 306.77C202.173 306.77 201.786 306.882 201.459 307.106C201.133 307.33 200.932 307.661 200.857 308.1H199.653C199.709 307.596 199.877 307.176 200.157 306.84C200.447 306.495 200.811 306.233 201.249 306.056C201.688 305.869 202.145 305.776 202.621 305.776C203.275 305.776 203.816 305.897 204.245 306.14C204.684 306.373 205.011 306.705 205.225 307.134C205.44 307.554 205.547 308.053 205.547 308.632V313H204.497L204.427 311.754C204.334 311.95 204.213 312.137 204.063 312.314C203.923 312.482 203.755 312.631 203.559 312.762C203.363 312.883 203.139 312.981 202.887 313.056C202.645 313.131 202.365 313.168 202.047 313.168ZM202.229 312.174C202.556 312.174 202.85 312.109 203.111 311.978C203.382 311.838 203.611 311.651 203.797 311.418C203.984 311.175 204.124 310.909 204.217 310.62C204.32 310.331 204.371 310.027 204.371 309.71V309.668H202.607C202.15 309.668 201.781 309.724 201.501 309.836C201.221 309.939 201.021 310.088 200.899 310.284C200.778 310.471 200.717 310.685 200.717 310.928C200.717 311.18 200.773 311.399 200.885 311.586C201.007 311.773 201.179 311.917 201.403 312.02C201.637 312.123 201.912 312.174 202.229 312.174ZM207.367 313V305.944H208.431L208.515 307.288C208.673 306.971 208.874 306.7 209.117 306.476C209.369 306.252 209.667 306.079 210.013 305.958C210.367 305.837 210.769 305.776 211.217 305.776V307.008H210.783C210.484 307.008 210.199 307.05 209.929 307.134C209.658 307.209 209.415 307.335 209.201 307.512C208.995 307.689 208.832 307.932 208.711 308.24C208.599 308.539 208.543 308.912 208.543 309.36V313H207.367Z" fill="white" fill-opacity="0.4"/>
<path d="M252.42 313L256.032 303.2H257.278L260.876 313H259.63L256.648 304.67L253.652 313H252.42ZM254.072 310.48L254.408 309.528H258.846L259.182 310.48H254.072ZM262.277 316.08V305.944H263.341L263.439 307.092C263.588 306.868 263.78 306.658 264.013 306.462C264.246 306.257 264.526 306.093 264.853 305.972C265.18 305.841 265.553 305.776 265.973 305.776C266.664 305.776 267.261 305.939 267.765 306.266C268.278 306.593 268.675 307.036 268.955 307.596C269.244 308.147 269.389 308.777 269.389 309.486C269.389 310.195 269.244 310.83 268.955 311.39C268.675 311.941 268.278 312.375 267.765 312.692C267.252 313.009 266.65 313.168 265.959 313.168C265.39 313.168 264.886 313.051 264.447 312.818C264.018 312.585 263.686 312.258 263.453 311.838V316.08H262.277ZM265.833 312.146C266.29 312.146 266.696 312.034 267.051 311.81C267.406 311.586 267.681 311.278 267.877 310.886C268.082 310.485 268.185 310.013 268.185 309.472C268.185 308.94 268.082 308.473 267.877 308.072C267.681 307.671 267.406 307.358 267.051 307.134C266.696 306.91 266.29 306.798 265.833 306.798C265.366 306.798 264.956 306.91 264.601 307.134C264.246 307.358 263.971 307.671 263.775 308.072C263.579 308.473 263.481 308.94 263.481 309.472C263.481 310.013 263.579 310.485 263.775 310.886C263.971 311.278 264.246 311.586 264.601 311.81C264.956 312.034 265.366 312.146 265.833 312.146ZM271.041 313V305.944H272.105L272.189 307.288C272.347 306.971 272.548 306.7 272.791 306.476C273.043 306.252 273.341 306.079 273.687 305.958C274.041 305.837 274.443 305.776 274.891 305.776V307.008H274.457C274.158 307.008 273.873 307.05 273.603 307.134C273.332 307.209 273.089 307.335 272.875 307.512C272.669 307.689 272.506 307.932 272.385 308.24C272.273 308.539 272.217 308.912 272.217 309.36V313H271.041Z" fill="white" fill-opacity="0.4"/>
<path d="M317.05 313V303.2H318.422L321.88 310.046L325.352 303.2H326.738V313H325.562V305.3L322.328 311.628H321.446L318.226 305.328V313H317.05ZM331.047 313.168C330.478 313.168 330.002 313.07 329.619 312.874C329.237 312.669 328.952 312.403 328.765 312.076C328.579 311.74 328.485 311.376 328.485 310.984C328.485 310.508 328.607 310.107 328.849 309.78C329.101 309.444 329.451 309.192 329.899 309.024C330.357 308.847 330.893 308.758 331.509 308.758H333.371C333.371 308.319 333.301 307.955 333.161 307.666C333.031 307.367 332.835 307.143 332.573 306.994C332.321 306.845 332.004 306.77 331.621 306.77C331.173 306.77 330.786 306.882 330.459 307.106C330.133 307.33 329.932 307.661 329.857 308.1H328.653C328.709 307.596 328.877 307.176 329.157 306.84C329.447 306.495 329.811 306.233 330.249 306.056C330.688 305.869 331.145 305.776 331.621 305.776C332.275 305.776 332.816 305.897 333.245 306.14C333.684 306.373 334.011 306.705 334.225 307.134C334.44 307.554 334.547 308.053 334.547 308.632V313H333.497L333.427 311.754C333.334 311.95 333.213 312.137 333.063 312.314C332.923 312.482 332.755 312.631 332.559 312.762C332.363 312.883 332.139 312.981 331.887 313.056C331.645 313.131 331.365 313.168 331.047 313.168ZM331.229 312.174C331.556 312.174 331.85 312.109 332.111 311.978C332.382 311.838 332.611 311.651 332.797 311.418C332.984 311.175 333.124 310.909 333.217 310.62C333.32 310.331 333.371 310.027 333.371 309.71V309.668H331.607C331.15 309.668 330.781 309.724 330.501 309.836C330.221 309.939 330.021 310.088 329.899 310.284C329.778 310.471 329.717 310.685 329.717 310.928C329.717 311.18 329.773 311.399 329.885 311.586C330.007 311.773 330.179 311.917 330.403 312.02C330.637 312.123 330.912 312.174 331.229 312.174ZM336.932 316.08L338.654 312.216H338.248L335.476 305.944H336.75L339.046 311.334L341.454 305.944H342.672L338.164 316.08H336.932Z" fill="white" fill-opacity="0.4"/>
<path d="M386.234 313.168C385.646 313.168 385.137 313.056 384.708 312.832C384.288 312.608 383.961 312.286 383.728 311.866C383.504 311.446 383.392 310.947 383.392 310.368H384.582C384.582 310.695 384.633 310.993 384.736 311.264C384.848 311.525 385.021 311.735 385.254 311.894C385.497 312.043 385.819 312.118 386.22 312.118C386.612 312.118 386.92 312.043 387.144 311.894C387.377 311.745 387.541 311.544 387.634 311.292C387.737 311.031 387.788 310.737 387.788 310.41V303.2H388.964V310.41C388.964 311.287 388.721 311.969 388.236 312.454C387.76 312.93 387.093 313.168 386.234 313.168ZM393.556 313.168C393.014 313.168 392.538 313.061 392.128 312.846C391.726 312.631 391.414 312.3 391.19 311.852C390.975 311.404 390.868 310.844 390.868 310.172V305.944H392.044V310.046C392.044 310.746 392.198 311.273 392.506 311.628C392.814 311.983 393.248 312.16 393.808 312.16C394.2 312.16 394.554 312.067 394.872 311.88C395.189 311.684 395.436 311.409 395.614 311.054C395.8 310.69 395.894 310.247 395.894 309.724V305.944H397.07V313H396.006L395.936 311.768C395.721 312.207 395.404 312.552 394.984 312.804C394.564 313.047 394.088 313.168 393.556 313.168ZM399.019 313V305.944H400.083L400.139 307.176C400.363 306.737 400.68 306.397 401.091 306.154C401.511 305.902 401.987 305.776 402.519 305.776C403.07 305.776 403.546 305.888 403.947 306.112C404.348 306.327 404.661 306.658 404.885 307.106C405.109 307.545 405.221 308.105 405.221 308.786V313H404.045V308.912C404.045 308.203 403.886 307.671 403.569 307.316C403.261 306.961 402.822 306.784 402.253 306.784C401.861 306.784 401.511 306.882 401.203 307.078C400.895 307.265 400.648 307.54 400.461 307.904C400.284 308.259 400.195 308.702 400.195 309.234V313H399.019Z" fill="white" fill-opacity="0.4"/>
<path d="M450.234 313.168C449.646 313.168 449.137 313.056 448.708 312.832C448.288 312.608 447.961 312.286 447.728 311.866C447.504 311.446 447.392 310.947 447.392 310.368H448.582C448.582 310.695 448.633 310.993 448.736 311.264C448.848 311.525 449.021 311.735 449.254 311.894C449.497 312.043 449.819 312.118 450.22 312.118C450.612 312.118 450.92 312.043 451.144 311.894C451.377 311.745 451.541 311.544 451.634 311.292C451.737 311.031 451.788 310.737 451.788 310.41V303.2H452.964V310.41C452.964 311.287 452.721 311.969 452.236 312.454C451.76 312.93 451.093 313.168 450.234 313.168ZM457.556 313.168C457.014 313.168 456.538 313.061 456.128 312.846C455.726 312.631 455.414 312.3 455.19 311.852C454.975 311.404 454.868 310.844 454.868 310.172V305.944H456.044V310.046C456.044 310.746 456.198 311.273 456.506 311.628C456.814 311.983 457.248 312.16 457.808 312.16C458.2 312.16 458.554 312.067 458.872 311.88C459.189 311.684 459.436 311.409 459.614 311.054C459.8 310.69 459.894 310.247 459.894 309.724V305.944H461.07V313H460.006L459.936 311.768C459.721 312.207 459.404 312.552 458.984 312.804C458.564 313.047 458.088 313.168 457.556 313.168ZM463.019 313V302.92H464.195V313H463.019ZM466.906 316.08L468.628 312.216H468.222L465.45 305.944H466.724L469.02 311.334L471.428 305.944H472.646L468.138 316.08H466.906Z" fill="white" fill-opacity="0.4"/>
<rect x="68.5" y="220" width="1" height="6" fill="#99E39E"/>
<rect x="65" y="226" width="8" height="36" fill="#99E39E"/>
<rect x="68.5" y="262" width="1" height="14" fill="#99E39E"/>
<rect x="90.5" y="180" width="1" height="18" fill="#99E39E"/>
<rect x="87" y="198" width="8" height="24" fill="#99E39E"/>
<rect x="90.5" y="222" width="1" height="14" fill="#99E39E"/>
<rect x="111.5" y="168" width="1" height="8" fill="#99E39E"/>
<rect x="108" y="176" width="8" height="40" fill="#99E39E"/>
<rect x="111.5" y="216" width="1" height="14" fill="#99E39E"/>
<rect x="133.5" y="189" width="1" height="6" fill="#FF6961"/>
<rect x="130" y="195" width="8" height="40" fill="#FF6961"/>
<rect x="133.5" y="235" width="1" height="14" fill="#FF6961"/>
<rect x="153.5" y="216" width="1" height="20" fill="#FF6961"/>
<rect x="150" y="236" width="8" height="20" fill="#FF6961"/>
<rect x="153.5" y="256" width="1" height="9" fill="#FF6961"/>
<rect x="195.5" y="183" width="1" height="12" fill="#99E39E"/>
<rect x="192" y="195" width="8" height="29" fill="#99E39E"/>
<rect x="195.5" y="224" width="1" height="25" fill="#99E39E"/>
<rect x="216.5" y="191" width="1" height="21" fill="#FF6961"/>
<rect x="213" y="212" width="8" height="21" fill="#FF6961"/>
<rect x="216.5" y="233" width="1" height="8" fill="#FF6961"/>
<rect x="237.5" y="175" width="1" height="11" fill="#99E39E"/>
<rect x="234" y="186" width="8" height="52" fill="#99E39E"/>
<rect x="237.5" y="238" width="1" height="8" fill="#99E39E"/>
<rect x="258.5" y="207" width="1" height="11" fill="#FF6961"/>
<rect x="255" y="218" width="8" height="30" fill="#FF6961"/>
<rect x="258.5" y="248" width="1" height="8" fill="#FF6961"/>
<rect x="300.5" y="192" width="1" height="6" fill="#99E39E"/>
<rect x="297" y="198" width="8" height="39" fill="#99E39E"/>
<rect x="300.5" y="237" width="1" height="15" fill="#99E39E"/>
<rect x="321.5" y="175" width="1" height="6" fill="#99E39E"/>
<rect x="318" y="181" width="8" height="35" fill="#99E39E"/>
<rect x="321.5" y="216" width="1" height="15" fill="#99E39E"/>
<rect x="342.5" y="157" width="1" height="4" fill="#99E39E"/>
<rect x="339" y="161" width="8" height="24" fill="#99E39E"/>
<rect x="342.5" y="185" width="1" height="9" fill="#99E39E"/>
<rect x="364.5" y="173" width="1" height="6" fill="#FF6961"/>
<rect x="361" y="179" width="8" height="39" fill="#FF6961"/>
<rect x="364.5" y="218" width="1" height="15" fill="#FF6961"/>
<rect x="378" y="230" width="8" height="15" fill="#99E39E"/>
<rect x="381.5" y="245" width="1" height="8" fill="#99E39E"/>
<rect x="280.5" y="197" width="1" height="8" fill="#99E39E"/>
<rect x="277" y="205" width="8" height="57" fill="#99E39E"/>
<rect x="280.5" y="262" width="1" height="8" fill="#99E39E"/>
<rect x="174.5" y="215" width="1" height="13" fill="#FF6961"/>
<rect x="171" y="228" width="8" height="42" fill="#FF6961"/>
<rect x="174.5" y="270" width="1" height="12" fill="#FF6961"/>
<line x1="423" y1="229.5" x2="60" y2="229.5" stroke="white" stroke-opacity="0.6" stroke-dasharray="4 4"/>
<rect x="423" y="215" width="53" height="25" rx="12.5" fill="#000510"/>
<rect x="423.5" y="215.5" width="52" height="24" rx="12" stroke="white" stroke-opacity="0.2"/>
<path d="M438.108 233.044V222.508H438.924V233.044H438.108ZM438.624 232.144C438.008 232.144 437.468 232.036 437.004 231.82C436.54 231.596 436.18 231.284 435.924 230.884C435.668 230.484 435.54 230.016 435.54 229.48H436.8C436.808 229.784 436.88 230.064 437.016 230.32C437.16 230.568 437.364 230.768 437.628 230.92C437.9 231.064 438.232 231.136 438.624 231.136C438.96 231.136 439.248 231.08 439.488 230.968C439.736 230.856 439.924 230.704 440.052 230.512C440.18 230.312 440.244 230.084 440.244 229.828C440.244 229.532 440.176 229.288 440.04 229.096C439.904 228.904 439.72 228.748 439.488 228.628C439.264 228.5 439 228.388 438.696 228.292C438.4 228.196 438.088 228.092 437.76 227.98C437.096 227.764 436.6 227.484 436.272 227.14C435.952 226.796 435.792 226.348 435.792 225.796C435.792 225.324 435.904 224.916 436.128 224.572C436.352 224.22 436.664 223.948 437.064 223.756C437.472 223.556 437.952 223.456 438.504 223.456C439.048 223.456 439.524 223.556 439.932 223.756C440.34 223.956 440.66 224.232 440.892 224.584C441.124 224.936 441.24 225.348 441.24 225.82H439.968C439.968 225.604 439.912 225.392 439.8 225.184C439.688 224.976 439.52 224.808 439.296 224.68C439.072 224.544 438.796 224.476 438.468 224.476C438.196 224.468 437.952 224.512 437.736 224.608C437.52 224.704 437.352 224.844 437.232 225.028C437.112 225.212 437.052 225.432 437.052 225.688C437.052 225.944 437.104 226.152 437.208 226.312C437.32 226.464 437.48 226.596 437.688 226.708C437.896 226.82 438.136 226.924 438.408 227.02C438.688 227.108 438.996 227.208 439.332 227.32C439.748 227.456 440.116 227.624 440.436 227.824C440.764 228.016 441.02 228.268 441.204 228.58C441.396 228.884 441.492 229.276 441.492 229.756C441.492 230.172 441.384 230.56 441.168 230.92C440.952 231.28 440.632 231.576 440.208 231.808C439.784 232.032 439.256 232.144 438.624 232.144ZM445.583 232.144C445.047 232.144 444.555 232.048 444.107 231.856C443.667 231.656 443.315 231.36 443.051 230.968C442.795 230.568 442.659 230.068 442.643 229.468H443.843C443.851 229.772 443.923 230.048 444.059 230.296C444.195 230.544 444.391 230.744 444.647 230.896C444.911 231.04 445.223 231.112 445.583 231.112C445.943 231.112 446.243 231.044 446.483 230.908C446.731 230.772 446.915 230.588 447.035 230.356C447.163 230.124 447.227 229.864 447.227 229.576C447.227 229.216 447.139 228.924 446.963 228.7C446.795 228.476 446.563 228.308 446.267 228.196C445.979 228.084 445.655 228.028 445.295 228.028H444.671V227.02H445.295C445.799 227.02 446.199 226.904 446.495 226.672C446.799 226.44 446.951 226.112 446.951 225.688C446.951 225.336 446.835 225.048 446.603 224.824C446.371 224.6 446.031 224.488 445.583 224.488C445.135 224.488 444.779 224.616 444.515 224.872C444.259 225.128 444.115 225.452 444.083 225.844H442.895C442.919 225.372 443.043 224.956 443.267 224.596C443.499 224.228 443.811 223.948 444.203 223.756C444.603 223.556 445.063 223.456 445.583 223.456C446.143 223.456 446.611 223.556 446.987 223.756C447.371 223.948 447.659 224.208 447.851 224.536C448.051 224.864 448.151 225.224 448.151 225.616C448.151 225.912 448.095 226.188 447.983 226.444C447.871 226.692 447.711 226.908 447.503 227.092C447.295 227.276 447.043 227.408 446.747 227.488C447.067 227.552 447.355 227.676 447.611 227.86C447.867 228.044 448.067 228.284 448.211 228.58C448.355 228.868 448.427 229.204 448.427 229.588C448.427 230.044 448.319 230.468 448.103 230.86C447.887 231.244 447.567 231.556 447.143 231.796C446.727 232.028 446.207 232.144 445.583 232.144ZM452.708 232.144C452.172 232.144 451.68 232.048 451.232 231.856C450.792 231.656 450.44 231.36 450.176 230.968C449.92 230.568 449.784 230.068 449.768 229.468H450.968C450.976 229.772 451.048 230.048 451.184 230.296C451.32 230.544 451.516 230.744 451.772 230.896C452.036 231.04 452.348 231.112 452.708 231.112C453.068 231.112 453.368 231.044 453.608 230.908C453.856 230.772 454.04 230.588 454.16 230.356C454.288 230.124 454.352 229.864 454.352 229.576C454.352 229.216 454.264 228.924 454.088 228.7C453.92 228.476 453.688 228.308 453.392 228.196C453.104 228.084 452.78 228.028 452.42 228.028H451.796V227.02H452.42C452.924 227.02 453.324 226.904 453.62 226.672C453.924 226.44 454.076 226.112 454.076 225.688C454.076 225.336 453.96 225.048 453.728 224.824C453.496 224.6 453.156 224.488 452.708 224.488C452.26 224.488 451.904 224.616 451.64 224.872C451.384 225.128 451.24 225.452 451.208 225.844H450.02C450.044 225.372 450.168 224.956 450.392 224.596C450.624 224.228 450.936 223.948 451.328 223.756C451.728 223.556 452.188 223.456 452.708 223.456C453.268 223.456 453.736 223.556 454.112 223.756C454.496 223.948 454.784 224.208 454.976 224.536C455.176 224.864 455.276 225.224 455.276 225.616C455.276 225.912 455.22 226.188 455.108 226.444C454.996 226.692 454.836 226.908 454.628 227.092C454.42 227.276 454.168 227.408 453.872 227.488C454.192 227.552 454.48 227.676 454.736 227.86C454.992 228.044 455.192 228.284 455.336 228.58C455.48 228.868 455.552 229.204 455.552 229.588C455.552 230.044 455.444 230.468 455.228 230.86C455.012 231.244 454.692 231.556 454.268 231.796C453.852 232.028 453.332 232.144 452.708 232.144ZM457.169 232V223.6H458.369V227.248L461.729 223.6H463.229L460.109 226.936L463.289 232H461.825L459.257 227.872L458.369 228.82V232H457.169Z" fill="white"/>
</g>
<defs>
<filter id="filter0_d_0_5771" x="-4" y="-16" width="586" height="406" filterUnits="userSpaceOnUse" color-interpolation-filters="sRGB">
<feFlood flood-opacity="0" result="BackgroundImageFix"/>
<feColorMatrix in="SourceAlpha" type="matrix" values="0 0 0 0 0 0 0 0 0 0 0 0 0 0 0 0 0 0 127 0" result="hardAlpha"/>
<feOffset dy="12"/>
<feGaussianBlur stdDeviation="14"/>
<feColorMatrix type="matrix" values="0 0 0 0 0.0375 0 0 0 0 0.0354687 0 0 0 0 0.0354687 0 0 0 0.32 0"/>
<feBlend mode="normal" in2="BackgroundImageFix" result="effect1_dropShadow_0_5771"/>
<feBlend mode="normal" in="SourceGraphic" in2="effect1_dropShadow_0_5771" result="shape"/>
</filter>
</defs>
</svg>
