<svg width="126" height="144" viewBox="0 0 126 144" fill="none" xmlns="http://www.w3.org/2000/svg">
<path d="M87.3877 39.5967C108.316 50.9118 115.984 77.2821 104.514 98.4966C97.4158 111.626 84.6507 119.704 70.9907 121.271" stroke="url(#paint0_linear_0_6022)" stroke-width="1.5" stroke-miterlimit="10"/>
<path d="M70.1847 122.294C70.9176 120.939 70.4271 119.297 69.07 118.563C67.7128 117.829 66.0706 118.318 65.3377 119.674C64.6049 121.029 65.0953 122.671 66.4525 123.404C67.7573 124.235 69.4518 123.65 70.1847 122.294Z" fill="#2C3D4C" stroke="url(#paint1_linear_0_6022)" stroke-miterlimit="10"/>
<path d="M21.9346 95.9688C9.29893 75.4314 15.6406 48.5787 36.099 35.9917C48.7606 28.2016 63.8619 27.7014 76.5287 33.3201" stroke="url(#paint2_linear_0_6022)" stroke-width="1.5" stroke-miterlimit="10"/>
<path d="M73.8021 29.5297C72.4896 30.3372 72.0936 32.0041 72.902 33.3181C73.7105 34.6321 75.3769 35.0301 76.6894 34.2226C78.0019 33.4151 78.3979 31.7482 77.5895 30.4341C76.8748 29.0624 75.1146 28.7221 73.8021 29.5297Z" fill="#2C3D4C" stroke="url(#paint3_linear_0_6022)" stroke-miterlimit="10"/>
<g filter="url(#filter0_d_0_6022)">
<ellipse cx="61.8113" cy="75.7808" rx="31.5" ry="32" fill="url(#paint4_radial_0_6022)"/>
</g>
<path d="M55.6075 84.7808V82.4318C56.7955 81.4778 57.9295 80.5238 59.0095 79.5698C60.1075 78.6158 61.0885 77.6708 61.9525 76.7348C62.8345 75.7988 63.5275 74.8808 64.0315 73.9808C64.5355 73.0808 64.7875 72.2168 64.7875 71.3888C64.7875 70.8488 64.6885 70.3448 64.4905 69.8768C64.2925 69.4088 63.9865 69.0308 63.5725 68.7428C63.1585 68.4548 62.6005 68.3108 61.8985 68.3108C61.2325 68.3108 60.6655 68.4638 60.1975 68.7698C59.7295 69.0758 59.3785 69.4898 59.1445 70.0118C58.9105 70.5158 58.7935 71.0918 58.7935 71.7398H55.6615C55.6975 70.3718 55.9945 69.2288 56.5525 68.3108C57.1105 67.3928 57.8575 66.7088 58.7935 66.2588C59.7475 65.7908 60.8185 65.5568 62.0065 65.5568C63.2665 65.5568 64.3465 65.7908 65.2465 66.2588C66.1465 66.7268 66.8305 67.3838 67.2985 68.2298C67.7845 69.0758 68.0275 70.0748 68.0275 71.2268C68.0275 72.0728 67.8655 72.9098 67.5415 73.7378C67.2355 74.5478 66.8035 75.3398 66.2455 76.1138C65.7055 76.8698 65.0935 77.6078 64.4095 78.3278C63.7255 79.0298 63.0145 79.7048 62.2765 80.3528C61.5565 80.9828 60.8545 81.5678 60.1705 82.1078H68.5405V84.7808H55.6075Z" fill="#010409"/>
<defs>
<filter id="filter0_d_0_6022" x="0.31134" y="19.7808" width="123" height="124" filterUnits="userSpaceOnUse" color-interpolation-filters="sRGB">
<feFlood flood-opacity="0" result="BackgroundImageFix"/>
<feColorMatrix in="SourceAlpha" type="matrix" values="0 0 0 0 0 0 0 0 0 0 0 0 0 0 0 0 0 0 127 0" result="hardAlpha"/>
<feOffset dy="6"/>
<feGaussianBlur stdDeviation="15"/>
<feComposite in2="hardAlpha" operator="out"/>
<feColorMatrix type="matrix" values="0 0 0 0 0 0 0 0 0 0.220306 0 0 0 0 0.379167 0 0 0 1 0"/>
<feBlend mode="normal" in2="BackgroundImageFix" result="effect1_dropShadow_0_6022"/>
<feBlend mode="normal" in="SourceGraphic" in2="effect1_dropShadow_0_6022" result="shape"/>
</filter>
<linearGradient id="paint0_linear_0_6022" x1="123.784" y1="17.8549" x2="134.335" y2="124.205" gradientUnits="userSpaceOnUse">
<stop offset="0.303689" stop-color="#004DF4" stop-opacity="0"/>
<stop offset="0.422945" stop-color="#004DF4" stop-opacity="0.4"/>
<stop offset="0.499089" stop-color="#004DF4"/>
<stop offset="0.649516" stop-color="#26DDFF"/>
<stop offset="0.953267" stop-color="#26DDFF" stop-opacity="0"/>
</linearGradient>
<linearGradient id="paint1_linear_0_6022" x1="64.9184" y1="119.465" x2="78.4713" y2="127.019" gradientUnits="userSpaceOnUse">
<stop stop-color="#26BAD8"/>
<stop offset="0.803412" stop-color="#1C3D71"/>
</linearGradient>
<linearGradient id="paint2_linear_0_6022" x1="-20.4864" y1="96.2738" x2="24.3977" y2="-0.882079" gradientUnits="userSpaceOnUse">
<stop offset="0.303689" stop-color="#004DF4" stop-opacity="0"/>
<stop offset="0.422945" stop-color="#004DF4" stop-opacity="0.4"/>
<stop offset="0.674376" stop-color="#004DF4"/>
<stop offset="0.89827" stop-color="#0194FE"/>
</linearGradient>
<linearGradient id="paint3_linear_0_6022" x1="106.097" y1="58.8884" x2="68.9881" y2="21.2946" gradientUnits="userSpaceOnUse">
<stop stop-color="#26BAD8"/>
<stop offset="0.803412" stop-color="#0194FE"/>
</linearGradient>
<radialGradient id="paint4_radial_0_6022" cx="0" cy="0" r="1" gradientUnits="userSpaceOnUse" gradientTransform="translate(66.3113 76.1963) rotate(26.4692) scale(138.927 186.212)">
<stop stop-color="#00C3FD"/>
<stop offset="0.381991" stop-color="#0194FE"/>
<stop offset="1" stop-color="#0194FE"/>
</radialGradient>
</defs>
</svg>
